<svg xmlns="http://www.w3.org/2000/svg" xmlns:xlink="http://www.w3.org/1999/xlink" version="1.1" data-diagram-type="DESCRIPTION" style="width:957px;height:1132px;background:#FFFFFF;" width="957px" height="1132px" viewBox="0 0 957 1132" zoomAndPan="magnify" preserveAspectRatio="none" contentStyleType="text/css"><?plantuml 1.2026.8?><defs/><g font-family="sans-serif" lengthAdjust="spacing"><g class="title" data-source-line="6"><text x="343.432" y="22.995" fill="#000" font-size="14" textLength="263.546" font-weight="700">Компоненты C4 — сервис ставок</text><text x="183.823" y="39.292" fill="#000" font-size="14" textLength="582.764" font-weight="700">API текущих ставок, выгрузка CSV, репозиторий, MS SQL, клиент SFTP.</text><text x="247.148" y="55.589" fill="#000" font-size="14" textLength="456.114" font-weight="700">Стрелка от вызывающего. Под ней протокол и формат.</text></g><!--cluster rates--><g class="cluster" data-qualified-name="rates" id="ent0003" data-source-line="1690"><rect x="7" y="269.891" width="708" height="696" fill="none" style="stroke:#444;stroke-width:1;stroke-dasharray:7,7;"/><text x="295.016" y="286.742" fill="#444" font-size="16" textLength="131.969" font-weight="700">Сервис ставок</text><text x="323.292" y="301.654" fill="#444" font-size="12" textLength="75.416" font-weight="700">[container]</text></g><!--entity api--><g class="entity" data-qualified-name="rates.api" id="ent0004" data-source-line="83"><rect x="23.5" y="328.891" width="209.157" height="117.781" fill="#E8F8F5" style="stroke:#117A65;stroke-width:0.5;"/><text x="36.395" y="353.742" fill="#0E6655" font-size="16" textLength="30.063" font-weight="700">API</text><text x="66.458" y="353.742" fill="#0E6655" font-size="16" font-weight="700"> </text><text x="72.028" y="353.742" fill="#0E6655" font-size="16" textLength="80.633" font-weight="700">текущих</text><text x="152.661" y="353.742" fill="#0E6655" font-size="16" font-weight="700"> </text><text x="158.231" y="353.742" fill="#0E6655" font-size="16" textLength="61.531" font-weight="700">ставок</text><text x="109.545" y="368.654" fill="#0E6655" font-size="12" textLength="37.066" font-style="italic">[.NET]</text><text x="125.854" y="384.479" fill="#0E6655" font-size="14"> </text><text x="33.5" y="400.776" fill="#0E6655" font-size="14" textLength="28.246">GET</text><text x="61.746" y="400.776" fill="#0E6655" font-size="14"> </text><text x="66.196" y="400.776" fill="#0E6655" font-size="14" textLength="100.673">/rates/current.</text><text x="166.869" y="400.776" fill="#0E6655" font-size="14"> </text><text x="171.319" y="400.776" fill="#0E6655" font-size="14" textLength="51.338">Только</text><text x="41.512" y="417.073" fill="#0E6655" font-size="14" textLength="61.626">базовый</text><text x="103.138" y="417.073" fill="#0E6655" font-size="14"> </text><text x="107.588" y="417.073" fill="#0E6655" font-size="14" textLength="51.14">тариф.</text><text x="158.728" y="417.073" fill="#0E6655" font-size="14"> </text><text x="163.178" y="417.073" fill="#0E6655" font-size="14" textLength="51.468">clientId</text><text x="53.3" y="433.37" fill="#0E6655" font-size="14" textLength="41.74">ответ</text><text x="95.041" y="433.37" fill="#0E6655" font-size="14"> </text><text x="99.491" y="433.37" fill="#0E6655" font-size="14" textLength="17.767">не</text><text x="117.257" y="433.37" fill="#0E6655" font-size="14"> </text><text x="121.708" y="433.37" fill="#0E6655" font-size="14" textLength="81.149">расширяет</text></g><!--entity export--><g class="entity" data-qualified-name="rates.export" id="ent0005" data-source-line="83"><rect x="332" y="320.891" width="214.394" height="134.078" fill="#E8F8F5" style="stroke:#117A65;stroke-width:0.5;"/><text x="374.658" y="345.742" fill="#0E6655" font-size="16" textLength="87.859" font-weight="700">Выгрузка</text><text x="462.517" y="345.742" fill="#0E6655" font-size="16" font-weight="700"> </text><text x="468.087" y="345.742" fill="#0E6655" font-size="16" textLength="35.648" font-weight="700">CSV</text><text x="420.664" y="360.654" fill="#0E6655" font-size="12" textLength="37.066" font-style="italic">[.NET]</text><text x="436.972" y="376.479" fill="#0E6655" font-size="14"> </text><text x="370.355" y="392.776" fill="#0E6655" font-size="14" textLength="44.352">После</text><text x="414.707" y="392.776" fill="#0E6655" font-size="14"> </text><text x="419.157" y="392.776" fill="#0E6655" font-size="14" textLength="88.881">публикации</text><text x="343.398" y="409.073" fill="#0E6655" font-size="14" textLength="59.138">базовой</text><text x="402.536" y="409.073" fill="#0E6655" font-size="14"> </text><text x="406.986" y="409.073" fill="#0E6655" font-size="14" textLength="50.237">ставки</text><text x="457.223" y="409.073" fill="#0E6655" font-size="14"> </text><text x="461.673" y="409.073" fill="#0E6655" font-size="14">и</text><text x="470.772" y="409.073" fill="#0E6655" font-size="14"> </text><text x="475.222" y="409.073" fill="#0E6655" font-size="14" textLength="30.413">ещё</text><text x="505.635" y="409.073" fill="#0E6655" font-size="14"> </text><text x="510.085" y="409.073" fill="#0E6655" font-size="14" textLength="24.91">раз</text><text x="354.862" y="425.37" fill="#0E6655" font-size="14">в</text><text x="363.113" y="425.37" fill="#0E6655" font-size="14"> </text><text x="367.563" y="425.37" fill="#0E6655" font-size="14" textLength="46.143">сутки.</text><text x="413.706" y="425.37" fill="#0E6655" font-size="14"> </text><text x="418.156" y="425.37" fill="#0E6655" font-size="14" textLength="105.376">Персональная</text><text x="342" y="441.667" fill="#0E6655" font-size="14" textLength="49.718">ставка</text><text x="391.718" y="441.667" fill="#0E6655" font-size="14"> </text><text x="396.168" y="441.667" fill="#0E6655" font-size="14" textLength="38.596">файл</text><text x="434.764" y="441.667" fill="#0E6655" font-size="14"> </text><text x="439.214" y="441.667" fill="#0E6655" font-size="14" textLength="17.767">не</text><text x="456.98" y="441.667" fill="#0E6655" font-size="14"> </text><text x="461.431" y="441.667" fill="#0E6655" font-size="14" textLength="74.963">запускает</text></g><!--entity repo--><g class="entity" data-qualified-name="rates.repo" id="ent0006" data-source-line="83"><rect x="23" y="579.891" width="206.375" height="117.781" fill="#F4F6F7" style="stroke:#7F8C8D;stroke-width:0.5;"/><text x="33" y="604.742" fill="#1C2833" font-size="16" textLength="119.273" font-weight="700">Репозиторий</text><text x="152.273" y="604.742" fill="#1C2833" font-size="16" font-weight="700"> </text><text x="157.844" y="604.742" fill="#1C2833" font-size="16" textLength="61.531" font-weight="700">ставок</text><text x="107.654" y="619.654" fill="#1C2833" font-size="12" textLength="37.066" font-style="italic">[.NET]</text><text x="123.962" y="635.479" fill="#1C2833" font-size="14"> </text><text x="35.598" y="651.776" fill="#1C2833" font-size="14" textLength="38.951">Один</text><text x="74.549" y="651.776" fill="#1C2833" font-size="14"> </text><text x="78.999" y="651.776" fill="#1C2833" font-size="14" textLength="51.536">доступ</text><text x="130.535" y="651.776" fill="#1C2833" font-size="14"> </text><text x="134.985" y="651.776" fill="#1C2833" font-size="14">к</text><text x="143.441" y="651.776" fill="#1C2833" font-size="14"> </text><text x="147.892" y="651.776" fill="#1C2833" font-size="14" textLength="68.886">базовому</text><text x="47.126" y="668.073" fill="#1C2833" font-size="14" textLength="54.975">тарифу</text><text x="102.101" y="668.073" fill="#1C2833" font-size="14"> </text><text x="106.551" y="668.073" fill="#1C2833" font-size="14" textLength="27.05">для</text><text x="133.601" y="668.073" fill="#1C2833" font-size="14"> </text><text x="138.051" y="668.073" fill="#1C2833" font-size="14" textLength="22.148">API</text><text x="160.2" y="668.073" fill="#1C2833" font-size="14"> </text><text x="164.65" y="668.073" fill="#1C2833" font-size="14">и</text><text x="173.749" y="668.073" fill="#1C2833" font-size="14"> </text><text x="178.199" y="668.073" fill="#1C2833" font-size="14" textLength="27.05">для</text><text x="91.772" y="684.37" fill="#1C2833" font-size="14" textLength="68.831">выгрузки</text></g><!--entity sftpClient--><g class="entity" data-qualified-name="rates.sftpClient" id="ent0007" data-source-line="83"><rect x="489" y="571.891" width="210.258" height="134.078" fill="#E8F8F5" style="stroke:#117A65;stroke-width:0.5;"/><text x="535.203" y="596.742" fill="#0E6655" font-size="16" textLength="67.188" font-weight="700">Клиент</text><text x="602.391" y="596.742" fill="#0E6655" font-size="16" font-weight="700"> </text><text x="607.961" y="596.742" fill="#0E6655" font-size="16" textLength="45.094" font-weight="700">SFTP</text><text x="575.596" y="611.654" fill="#0E6655" font-size="12" textLength="37.066" font-style="italic">[.NET]</text><text x="591.904" y="627.479" fill="#0E6655" font-size="14"> </text><text x="515.854" y="643.776" fill="#0E6655" font-size="14" textLength="53.915">Кладёт</text><text x="569.769" y="643.776" fill="#0E6655" font-size="14"> </text><text x="574.219" y="643.776" fill="#0E6655" font-size="14" textLength="61.045">готовый</text><text x="635.264" y="643.776" fill="#0E6655" font-size="14"> </text><text x="639.714" y="643.776" fill="#0E6655" font-size="14" textLength="32.689">CSV.</text><text x="530.514" y="660.073" fill="#0E6655" font-size="14" textLength="71.962">Неполная</text><text x="602.476" y="660.073" fill="#0E6655" font-size="14"> </text><text x="606.926" y="660.073" fill="#0E6655" font-size="14" textLength="50.818">сборка</text><text x="499" y="676.37" fill="#0E6655" font-size="14" textLength="124.995">опубликованный</text><text x="623.995" y="676.37" fill="#0E6655" font-size="14"> </text><text x="628.445" y="676.37" fill="#0E6655" font-size="14" textLength="38.596">файл</text><text x="667.041" y="676.37" fill="#0E6655" font-size="14"> </text><text x="671.491" y="676.37" fill="#0E6655" font-size="14" textLength="17.767">не</text><text x="553.67" y="692.667" fill="#0E6655" font-size="14" textLength="80.917">подменяет</text></g><!--entity db--><g class="entity" data-qualified-name="rates.db" id="ent0008" data-source-line="87"><path d="M106.5,832.891 C106.5,822.891 215.884,822.891 215.884,822.891 C215.884,822.891 325.269,822.891 325.269,832.891 L325.269,939.672 C325.269,949.672 215.884,949.672 215.884,949.672 C215.884,949.672 106.5,949.672 106.5,939.672 L106.5,832.891" style="stroke:#7F8C8D;stroke-width:0.5;" fill="#F4F6F7"/><path d="M106.5,832.891 C106.5,842.891 215.884,842.891 215.884,842.891 C215.884,842.891 325.269,842.891 325.269,832.891" style="stroke:#7F8C8D;stroke-width:0.5;" fill="none"/><text x="160.791" y="861.742" fill="#1C2833" font-size="16" textLength="43.086" font-weight="700">База</text><text x="203.876" y="861.742" fill="#1C2833" font-size="16" font-weight="700"> </text><text x="209.447" y="861.742" fill="#1C2833" font-size="16" textLength="61.531" font-weight="700">ставок</text><text x="188.436" y="876.654" fill="#1C2833" font-size="12" textLength="22.652" font-style="italic">[MS</text><text x="211.088" y="876.654" fill="#1C2833" font-size="12" font-style="italic"> </text><text x="214.903" y="876.654" fill="#1C2833" font-size="12" textLength="28.43" font-style="italic">SQL]</text><text x="213.659" y="892.479" fill="#1C2833" font-size="14"> </text><text x="116.5" y="908.776" fill="#1C2833" font-size="14" textLength="62.111">Базовые</text><text x="178.611" y="908.776" fill="#1C2833" font-size="14"> </text><text x="183.062" y="908.776" fill="#1C2833" font-size="14" textLength="57.743">тарифы</text><text x="240.805" y="908.776" fill="#1C2833" font-size="14"> </text><text x="245.255" y="908.776" fill="#1C2833" font-size="14">и</text><text x="254.354" y="908.776" fill="#1C2833" font-size="14"> </text><text x="258.804" y="908.776" fill="#1C2833" font-size="14" textLength="56.465">журнал</text><text x="140.668" y="925.073" fill="#1C2833" font-size="14" textLength="73.281">выгрузки.</text><text x="213.95" y="925.073" fill="#1C2833" font-size="14"> </text><text x="218.4" y="925.073" fill="#1C2833" font-size="14" textLength="35.014">Своя</text><text x="253.414" y="925.073" fill="#1C2833" font-size="14"> </text><text x="257.864" y="925.073" fill="#1C2833" font-size="14" textLength="33.236">база</text><text x="186.473" y="941.37" fill="#1C2833" font-size="14" textLength="58.823">сервиса</text></g><!--entity gw--><g class="entity" data-qualified-name="gw" id="ent0001" data-source-line="404"><rect x="20" y="76.891" width="215.973" height="103.813" fill="#F4F6F7" style="stroke:#7F8C8D;stroke-width:0.5;"/><text x="70.951" y="101.742" fill="#1C2833" font-size="16" textLength="30.063" font-weight="700">API</text><text x="101.014" y="101.742" fill="#1C2833" font-size="16" font-weight="700"> </text><text x="106.584" y="101.742" fill="#1C2833" font-size="16" textLength="78.438" font-weight="700">Gateway</text><text x="125.761" y="118.511" fill="#1C2833" font-size="14"> </text><text x="30" y="134.808" fill="#1C2833" font-size="14" textLength="34.207">Роль</text><text x="64.207" y="134.808" fill="#1C2833" font-size="14"> </text><text x="68.657" y="134.808" fill="#1C2833" font-size="14" textLength="74.149">call-center</text><text x="142.807" y="134.808" fill="#1C2833" font-size="14"> </text><text x="147.257" y="134.808" fill="#1C2833" font-size="14" textLength="78.716">открывает</text><text x="33.606" y="151.104" fill="#1C2833" font-size="14" textLength="50.941">только</text><text x="84.547" y="151.104" fill="#1C2833" font-size="14"> </text><text x="88.998" y="151.104" fill="#1C2833" font-size="14" textLength="28.246">GET</text><text x="117.244" y="151.104" fill="#1C2833" font-size="14"> </text><text x="121.694" y="151.104" fill="#1C2833" font-size="14" textLength="100.673">/rates/current.</text><text x="61.555" y="167.401" fill="#1C2833" font-size="14" textLength="52.5">Секрет</text><text x="114.055" y="167.401" fill="#1C2833" font-size="14"> </text><text x="118.505" y="167.401" fill="#1C2833" font-size="14">в</text><text x="126.756" y="167.401" fill="#1C2833" font-size="14"> </text><text x="131.206" y="167.401" fill="#1C2833" font-size="14" textLength="63.212">конфиге</text></g><!--entity sftp--><g class="entity" data-qualified-name="sftp" id="ent0002" data-source-line="404"><rect x="730.5" y="834.391" width="212.91" height="103.813" fill="#E8F8F5" style="stroke:#117A65;stroke-width:0.5;"/><text x="784.283" y="859.242" fill="#0E6655" font-size="16" textLength="45.094" font-weight="700">SFTP</text><text x="829.377" y="859.242" fill="#0E6655" font-size="16" font-weight="700"> </text><text x="834.947" y="859.242" fill="#0E6655" font-size="16" textLength="54.68" font-weight="700">банка</text><text x="834.73" y="876.011" fill="#0E6655" font-size="14"> </text><text x="740.5" y="892.308" fill="#0E6655" font-size="14" textLength="60.122">Каталог</text><text x="800.622" y="892.308" fill="#0E6655" font-size="14"> </text><text x="805.072" y="892.308" fill="#0E6655" font-size="14" textLength="73.281">выгрузки.</text><text x="878.354" y="892.308" fill="#0E6655" font-size="14"> </text><text x="882.804" y="892.308" fill="#0E6655" font-size="14" textLength="50.606">Учётка</text><text x="763.165" y="908.604" fill="#0E6655" font-size="14" textLength="70.007">партнёра</text><text x="833.171" y="908.604" fill="#0E6655" font-size="14"> </text><text x="837.622" y="908.604" fill="#0E6655" font-size="14" textLength="50.941">только</text><text x="888.563" y="908.604" fill="#0E6655" font-size="14"> </text><text x="893.013" y="908.604" fill="#0E6655" font-size="14" textLength="17.732">на</text><text x="811.002" y="924.901" fill="#0E6655" font-size="14" textLength="51.905">чтение</text></g><g class="entity" data-qualified-name="exportNote" id="ent0016" data-source-line="28"><path d="M271.5,93.391 L271.5,163.922 L474.614,163.922 L474.614,103.391 L464.614,93.391 L271.5,93.391" style="stroke:#181818;stroke-width:0.5;" fill="#FEFFDD"/><path d="M464.614,93.391 L464.614,103.391 L474.614,103.391 L464.614,93.391" style="stroke:#181818;stroke-width:1;" fill="#FEFFDD"/><text x="277.5" y="110.458" fill="#000" font-size="13" textLength="62.239">Витрина,</text><text x="339.739" y="110.458" fill="#000" font-size="13"> </text><text x="343.871" y="110.458" fill="#000" font-size="13" textLength="36.67">джоб</text><text x="380.542" y="110.458" fill="#000" font-size="13"> </text><text x="384.674" y="110.458" fill="#000" font-size="13">и</text><text x="393.123" y="110.458" fill="#000" font-size="13"> </text><text x="397.255" y="110.458" fill="#000" font-size="13" textLength="62.359">бэк-офис</text><text x="281.42" y="125.59" fill="#000" font-size="13" textLength="40.028">ходят</text><text x="321.448" y="125.59" fill="#000" font-size="13"> </text><text x="325.58" y="125.59" fill="#000" font-size="13">в</text><text x="333.242" y="125.59" fill="#000" font-size="13"> </text><text x="337.374" y="125.59" fill="#000" font-size="13" textLength="46.655">сервис</text><text x="384.03" y="125.59" fill="#000" font-size="13"> </text><text x="388.162" y="125.59" fill="#000" font-size="13" textLength="23.67">как</text><text x="411.832" y="125.59" fill="#000" font-size="13"> </text><text x="415.965" y="125.59" fill="#000" font-size="13">в</text><text x="423.626" y="125.59" fill="#000" font-size="13"> </text><text x="427.759" y="125.59" fill="#000" font-size="13" textLength="27.936">ADR</text><text x="334.321" y="140.723" fill="#000" font-size="13" textLength="68.472">депозита.</text><text x="293.372" y="155.856" fill="#000" font-size="13" textLength="17.742">На</text><text x="311.114" y="155.856" fill="#000" font-size="13"> </text><text x="315.246" y="155.856" fill="#000" font-size="13" textLength="31.11">этой</text><text x="346.356" y="155.856" fill="#000" font-size="13"> </text><text x="350.489" y="155.856" fill="#000" font-size="13" textLength="40.644">схеме</text><text x="391.133" y="155.856" fill="#000" font-size="13"> </text><text x="395.265" y="155.856" fill="#000" font-size="13" textLength="16.142">их</text><text x="411.407" y="155.856" fill="#000" font-size="13"> </text><text x="415.539" y="155.856" fill="#000" font-size="13" textLength="28.203">нет.</text></g><!--link gw to api--><g class="link" data-entity-1="ent0001" data-entity-2="ent0004" id="lnk9" data-source-line="1803" data-link-type="dependency"><path d="M128,180.971 C128,223.571 128,276.261 128,320.721" style="stroke:#117A65;stroke-width:1;" fill="none" id="gw-to-api"/><polygon points="128,328.721,131,320.721,125,320.721,128,328.721" fill="#117A65" style="stroke:#117A65;stroke-width:1;stroke-linejoin:miter;stroke-miterlimit:10;"/><text x="129" y="223.029" fill="#0E6655" font-size="12" textLength="48.252" font-weight="700">Читает</text><text x="177.252" y="223.029" fill="#0E6655" font-size="12" font-weight="700"> </text><text x="181.43" y="223.029" fill="#0E6655" font-size="12" textLength="58.547" font-weight="700">базовый</text><text x="239.977" y="223.029" fill="#0E6655" font-size="12" font-weight="700"> </text><text x="244.154" y="223.029" fill="#0E6655" font-size="12" textLength="43.957" font-weight="700">тариф</text><text x="170.25" y="236.998" fill="#0E6655" font-size="12" textLength="43.219" font-style="italic">[HTTPS</text><text x="213.469" y="236.998" fill="#0E6655" font-size="12" font-style="italic"> </text><text x="217.283" y="236.998" fill="#0E6655" font-size="12" textLength="29.578" font-style="italic">JSON</text><text x="150.964" y="250.967" fill="#0E6655" font-size="12" textLength="24.211" font-style="italic">GET</text><text x="175.175" y="250.967" fill="#0E6655" font-size="12" font-style="italic"> </text><text x="178.989" y="250.967" fill="#0E6655" font-size="12" textLength="87.158" font-style="italic">/rates/current]</text></g><!--link api to repo--><g class="link" data-entity-1="ent0004" data-entity-2="ent0006" id="lnk10" data-source-line="1803" data-link-type="dependency"><path d="M74.53,447.131 C66.51,458.881 59.45,471.701 55,484.891 C46.91,508.901 47.07,517.831 55,541.891 C59.35,555.081 61.841,561.285 69.711,573.085" style="stroke:#117A65;stroke-width:1;" fill="none" id="api-to-repo"/><polygon points="74.15,579.741,72.207,571.421,67.215,574.75,74.15,579.741" fill="#117A65" style="stroke:#117A65;stroke-width:1;stroke-linejoin:miter;stroke-miterlimit:10;"/><text x="56" y="511.029" fill="#0E6655" font-size="12" textLength="49.195" font-weight="700">Только</text><text x="105.195" y="511.029" fill="#0E6655" font-size="12" font-weight="700"> </text><text x="109.373" y="511.029" fill="#0E6655" font-size="12" textLength="58.547" font-weight="700">базовый</text><text x="167.92" y="511.029" fill="#0E6655" font-size="12" font-weight="700"> </text><text x="172.098" y="511.029" fill="#0E6655" font-size="12" textLength="43.957" font-weight="700">тариф</text><text x="61.438" y="524.998" fill="#0E6655" font-size="12" textLength="42.023" font-style="italic">[вызов</text><text x="103.461" y="524.998" fill="#0E6655" font-size="12" font-style="italic"> </text><text x="107.275" y="524.998" fill="#0E6655" font-size="12" textLength="44.426" font-style="italic">внутри</text><text x="151.701" y="524.998" fill="#0E6655" font-size="12" font-style="italic"> </text><text x="155.516" y="524.998" fill="#0E6655" font-size="12" textLength="55.102" font-style="italic">сервиса]</text></g><!--link export to repo--><g class="link" data-entity-1="ent0005" data-entity-2="ent0006" id="lnk11" data-source-line="1803" data-link-type="dependency"><path d="M331.81,433.581 C305.55,447.591 278.77,464.761 257,484.891 C235,505.241 239.65,518.441 221,541.891 C210.79,554.741 204.599,561.978 192.949,574.078" style="stroke:#117A65;stroke-width:1;" fill="none" id="export-to-repo"/><polygon points="187.4,579.841,195.11,576.158,190.788,571.997,187.4,579.841" fill="#117A65" style="stroke:#117A65;stroke-width:1;stroke-linejoin:miter;stroke-miterlimit:10;"/><text x="264.401" y="497.029" fill="#0E6655" font-size="12" textLength="32.508" font-weight="700">Срез</text><text x="296.909" y="497.029" fill="#0E6655" font-size="12" font-weight="700"> </text><text x="301.087" y="497.029" fill="#0E6655" font-size="12" textLength="57.879" font-weight="700">базовых</text><text x="358.966" y="497.029" fill="#0E6655" font-size="12" font-weight="700"> </text><text x="363.144" y="497.029" fill="#0E6655" font-size="12" textLength="59.795" font-weight="700">тарифов</text><text x="271.421" y="510.998" fill="#0E6655" font-size="12" textLength="42.023" font-style="italic">[вызов</text><text x="313.444" y="510.998" fill="#0E6655" font-size="12" font-style="italic"> </text><text x="317.259" y="510.998" fill="#0E6655" font-size="12" textLength="44.426" font-style="italic">внутри</text><text x="361.685" y="510.998" fill="#0E6655" font-size="12" font-style="italic"> </text><text x="365.499" y="510.998" fill="#0E6655" font-size="12" textLength="50.42" font-style="italic">сервиса</text><text x="258" y="524.967" fill="#0E6655" font-size="12" textLength="36.838" font-style="italic">после</text><text x="294.838" y="524.967" fill="#0E6655" font-size="12" font-style="italic"> </text><text x="298.652" y="524.967" fill="#0E6655" font-size="12" textLength="76.184" font-style="italic">публикации</text><text x="374.836" y="524.967" fill="#0E6655" font-size="12" font-style="italic"> </text><text x="378.65" y="524.967" fill="#0E6655" font-size="12" textLength="50.689" font-style="italic">базовой</text><text x="276.19" y="538.936" fill="#0E6655" font-size="12" textLength="43.061" font-style="italic">ставки</text><text x="319.251" y="538.936" fill="#0E6655" font-size="12" font-style="italic"> </text><text x="323.065" y="538.936" fill="#0E6655" font-size="12" font-style="italic">и</text><text x="330.864" y="538.936" fill="#0E6655" font-size="12" font-style="italic"> </text><text x="334.679" y="538.936" fill="#0E6655" font-size="12" textLength="21.352" font-style="italic">раз</text><text x="356.03" y="538.936" fill="#0E6655" font-size="12" font-style="italic"> </text><text x="359.845" y="538.936" fill="#0E6655" font-size="12" font-style="italic">в</text><text x="366.917" y="538.936" fill="#0E6655" font-size="12" font-style="italic"> </text><text x="370.731" y="538.936" fill="#0E6655" font-size="12" textLength="40.418" font-style="italic">сутки]</text></g><!--link repo to db--><g class="link" data-entity-1="ent0006" data-entity-2="ent0008" id="lnk12" data-source-line="1803" data-link-type="dependency"><path d="M111.65,697.981 C107.21,727.511 106.34,763.311 119,792.891 C123.58,803.591 125.036,807.413 132.516,816.653" style="stroke:#117A65;stroke-width:1;" fill="none" id="repo-to-db"/><polygon points="137.55,822.871,134.848,814.765,130.185,818.54,137.55,822.871" fill="#117A65" style="stroke:#117A65;stroke-width:1;stroke-linejoin:miter;stroke-miterlimit:10;"/><text x="120" y="762.029" fill="#0E6655" font-size="12" textLength="48.252" font-weight="700">Читает</text><text x="168.252" y="762.029" fill="#0E6655" font-size="12" font-weight="700"> </text><text x="172.43" y="762.029" fill="#0E6655" font-size="12" textLength="58.277" font-weight="700">базовые</text><text x="230.707" y="762.029" fill="#0E6655" font-size="12" font-weight="700"> </text><text x="234.885" y="762.029" fill="#0E6655" font-size="12" textLength="54.809" font-weight="700">тарифы</text><text x="172.383" y="775.998" fill="#0E6655" font-size="12" textLength="32.684" font-style="italic">[TDS,</text><text x="205.066" y="775.998" fill="#0E6655" font-size="12" font-style="italic"> </text><text x="208.881" y="775.998" fill="#0E6655" font-size="12" textLength="28.43" font-style="italic">SQL]</text></g><!--link export to db--><g class="link" data-entity-1="ent0005" data-entity-2="ent0008" id="lnk13" data-source-line="1803" data-link-type="dependency"><path d="M453.5,454.931 C456.11,484.471 453.21,517.951 434,541.891 C400.4,583.761 352.06,531.241 317,571.891 C252.5,646.671 332.65,702.011 294,792.891 C289.6,803.231 288.251,806.76 281.571,816.2" style="stroke:#117A65;stroke-width:1;" fill="none" id="export-to-db"/><polygon points="276.95,822.731,284.02,817.933,279.122,814.467,276.95,822.731" fill="#117A65" style="stroke:#117A65;stroke-width:1;stroke-linejoin:miter;stroke-miterlimit:10;"/><text x="332.361" y="622.529" fill="#0E6655" font-size="12" textLength="56.279" font-weight="700">Журнал</text><text x="388.641" y="622.529" fill="#0E6655" font-size="12" font-weight="700"> </text><text x="392.818" y="622.529" fill="#0E6655" font-size="12" textLength="64.652" font-weight="700">выгрузки</text><text x="364.793" y="636.498" fill="#0E6655" font-size="12" textLength="32.684" font-style="italic">[TDS,</text><text x="397.477" y="636.498" fill="#0E6655" font-size="12" font-style="italic"> </text><text x="401.291" y="636.498" fill="#0E6655" font-size="12" textLength="23.748" font-style="italic">SQL</text><text x="318" y="650.467" fill="#0E6655" font-size="12" textLength="21.58" font-style="italic">кто</text><text x="339.58" y="650.467" fill="#0E6655" font-size="12" font-style="italic"> </text><text x="343.395" y="650.467" fill="#0E6655" font-size="12" textLength="88.078" font-style="italic">инициировал,</text><text x="431.473" y="650.467" fill="#0E6655" font-size="12" font-style="italic"> </text><text x="435.287" y="650.467" fill="#0E6655" font-size="12" textLength="36.545" font-style="italic">когда</text><text x="335.019" y="664.436" fill="#0E6655" font-size="12" textLength="85.834" font-style="italic">опубликован,</text><text x="420.853" y="664.436" fill="#0E6655" font-size="12" font-style="italic"> </text><text x="424.667" y="664.436" fill="#0E6655" font-size="12" textLength="30.146" font-style="italic">хеш]</text></g><!--link export to sftpClient--><g class="link" data-entity-1="ent0005" data-entity-2="ent0007" id="lnk14" data-source-line="1803" data-link-type="dependency"><path d="M480.13,454.961 C502.55,490.981 526.003,528.649 548.453,564.719" style="stroke:#117A65;stroke-width:1;" fill="none" id="export-to-sftpClient"/><polygon points="552.68,571.511,551,563.133,545.906,566.304,552.68,571.511" fill="#117A65" style="stroke:#117A65;stroke-width:1;stroke-linejoin:miter;stroke-miterlimit:10;"/><text x="555.929" y="511.029" fill="#0E6655" font-size="12" textLength="57.943" font-weight="700">Готовый</text><text x="613.872" y="511.029" fill="#0E6655" font-size="12" font-weight="700"> </text><text x="618.05" y="511.029" fill="#0E6655" font-size="12" textLength="37.201" font-weight="700">файл</text><text x="531" y="524.998" fill="#0E6655" font-size="12" textLength="42.023" font-style="italic">[вызов</text><text x="573.023" y="524.998" fill="#0E6655" font-size="12" font-style="italic"> </text><text x="576.838" y="524.998" fill="#0E6655" font-size="12" textLength="44.426" font-style="italic">внутри</text><text x="621.264" y="524.998" fill="#0E6655" font-size="12" font-style="italic"> </text><text x="625.078" y="524.998" fill="#0E6655" font-size="12" textLength="55.102" font-style="italic">сервиса]</text></g><!--link sftpClient to sftp--><g class="link" data-entity-1="ent0007" data-entity-2="ent0002" id="lnk15" data-source-line="1803" data-link-type="dependency"><path d="M659.44,706.001 C699.36,746.341 744.002,791.435 780.852,828.665" style="stroke:#117A65;stroke-width:1;" fill="none" id="sftpClient-to-sftp"/><polygon points="786.48,834.351,782.984,826.554,778.72,830.775,786.48,834.351" fill="#117A65" style="stroke:#117A65;stroke-width:1;stroke-linejoin:miter;stroke-miterlimit:10;"/><text x="769.492" y="748.029" fill="#0E6655" font-size="12" textLength="74.502" font-weight="700">Публикует</text><text x="843.994" y="748.029" fill="#0E6655" font-size="12" font-weight="700"> </text><text x="848.172" y="748.029" fill="#0E6655" font-size="12" textLength="26.736" font-weight="700">CSV</text><text x="791.813" y="761.998" fill="#0E6655" font-size="12" textLength="32.754" font-style="italic">[SSH,</text><text x="824.567" y="761.998" fill="#0E6655" font-size="12" font-style="italic"> </text><text x="828.382" y="761.998" fill="#0E6655" font-size="12" textLength="24.205" font-style="italic">CSV</text><text x="745" y="775.967" fill="#0E6655" font-size="12" textLength="58.729" font-style="italic">прошлый</text><text x="803.729" y="775.967" fill="#0E6655" font-size="12" font-style="italic"> </text><text x="807.543" y="775.967" fill="#0E6655" font-size="12" textLength="54.961" font-style="italic">удачный</text><text x="862.504" y="775.967" fill="#0E6655" font-size="12" font-style="italic"> </text><text x="866.318" y="775.967" fill="#0E6655" font-size="12" textLength="33.082" font-style="italic">файл</text><text x="791.623" y="789.936" fill="#0E6655" font-size="12" textLength="61.154" font-style="italic">остаётся]</text></g><g class="legend" data-source-line="1577"><rect x="715.549" y="992.891" width="217.861" height="16.297" fill="none" style="stroke:none;"/><text x="715.549" y="1005.886" fill="#000" font-size="14" textLength="57.921" font-weight="700">Legend</text><text x="778.344" y="1005.886" fill="#FFF" font-size="14"> </text><rect x="715.549" y="1009.188" width="217.861" height="16.297" fill="#1168BD" style="stroke:none;"/><text x="719.999" y="1022.183" fill="#3C7FC0" font-size="14">▯</text><text x="727.703" y="1022.183" fill="#FFF" font-size="14"> </text><text x="736.604" y="1022.183" fill="#FFF" font-size="14" textLength="50.613">system</text><text x="791.667" y="1022.183" fill="#FFF" font-size="14"> </text><rect x="715.549" y="1025.484" width="217.861" height="16.297" fill="#85BBF0" style="stroke:none;"/><text x="719.999" y="1038.479" fill="#78A8D8" font-size="14">▯</text><text x="727.703" y="1038.479" fill="#FFF" font-size="14"> </text><text x="736.604" y="1038.479" fill="#000" font-size="14" textLength="79.201">component</text><text x="820.255" y="1038.479" fill="#FFF" font-size="14"> </text><rect x="715.549" y="1041.781" width="217.861" height="16.297" fill="none" style="stroke:none;"/><text x="719.999" y="1054.776" fill="#444" font-size="14">▯</text><text x="727.703" y="1054.776" fill="#FFF" font-size="14"> </text><text x="736.604" y="1054.776" fill="#444" font-size="14" textLength="137.491">container boundary</text><text x="878.545" y="1054.776" fill="#FFF" font-size="14"> </text><rect x="715.549" y="1058.078" width="217.861" height="16.297" fill="#F4F6F7" style="stroke:none;"/><text x="719.999" y="1071.073" fill="#7F8C8D" font-size="14">▯</text><text x="727.703" y="1071.073" fill="#FFF" font-size="14"> </text><text x="736.604" y="1071.073" fill="#1C2833" font-size="14" textLength="66.924">Уже есть</text><text x="807.978" y="1071.073" fill="#FFF" font-size="14"> </text><rect x="715.549" y="1074.375" width="217.861" height="16.297" fill="#E8F8F5" style="stroke:none;"/><text x="719.999" y="1087.37" fill="#117A65" font-size="14">▯</text><text x="727.703" y="1087.37" fill="#FFF" font-size="14"> </text><text x="736.604" y="1087.37" fill="#0E6655" font-size="14" textLength="143.568">Новое в этом кейсе</text><text x="884.622" y="1087.37" fill="#FFF" font-size="14"> </text><text x="719.999" y="1103.667" fill="#117A65" font-size="14">─</text><text x="728.428" y="1103.667" fill="#FFF" font-size="14"> </text><text x="737.328" y="1103.667" fill="#0E6655" font-size="14" textLength="187.182">Новый вызов этого кейса</text><text x="928.96" y="1103.667" fill="#FFF" font-size="14"> </text><line x1="715.549" y1="992.891" x2="933.41" y2="992.891" style="stroke:none;"/><line x1="715.549" y1="1009.188" x2="933.41" y2="1009.188" style="stroke:none;"/><line x1="715.549" y1="1025.484" x2="933.41" y2="1025.484" style="stroke:none;"/><line x1="715.549" y1="1041.781" x2="933.41" y2="1041.781" style="stroke:none;"/><line x1="715.549" y1="1058.078" x2="933.41" y2="1058.078" style="stroke:none;"/><line x1="715.549" y1="1074.375" x2="933.41" y2="1074.375" style="stroke:none;"/><line x1="715.549" y1="1090.672" x2="933.41" y2="1090.672" style="stroke:none;"/><line x1="715.549" y1="1106.969" x2="933.41" y2="1106.969" style="stroke:none;"/><line x1="715.549" y1="992.891" x2="715.549" y2="1106.969" style="stroke:none;"/><line x1="933.41" y1="992.891" x2="933.41" y2="1106.969" style="stroke:none;"/></g><?plantuml-src fLRHRXfN47tVhxX1VS0IXfSyLUg3YrqxbMFJG1fLicIjOUiWuGN18iUgAX6mQqTkQZcj-X0fJMaV-hh69c0m-1Vc_aA_f6Vc6hDhm8qKoNYvbxapPywScRiFycwsKCqvwhddbIgV9n9bUpU-dVUULxUg5QUSBRgUuthnR74dKIhOhbVTASnNl5mXlvL8FfnFyTRJnwk97RlYEMLiRIQBEwMYosTAiBKUZFnxzdObZeLbhIvyj_uqivbPJsqkhZzRYyvPbfVt2ewYjpIaAxh6_m6rQQ3h-bWb7wf_Qxyf_PBQkaOjwkgNMEWw-LWCgRVXBgGUAQpRrDCD_Ge61o63cAAMFgPpNTCDwb2FV9LCVnjJyDQMM1qSgTCGwovTnjJZj4f_iufJFUfZHt2ez5UPL7p3fIOmyRc--C6Xkl7UmQT5llu50DfqJiEuelVmVQ4abKj5rpWtv3WuEQI-egxI-nBr2kVgSSjAxu73dUZsRan5EATbstDsxRq8blGddz4_gwnTACndmQvJbkZ8kMP2Wvww4l-munXgUIcZK4xFgIIorNAPIwAeAJpLn9fQIi0C0AGBq6s4-ephz4N4UP6lU7btEp8tWbNvtYi12HEXw0pn1ao1W7lB2M2d3r_dTzdk8kZV-b2VCbZcx1hMDIm6sAfX8uGPNh5pAEKSCFjZIAwp2pHM4egqywvJtlooM7LpTdalAZaoaEOCZKJcr0-MKhVIZDgb_0t9zmY7SuklBMNuEPNBluB0cP8EDZZxItRhiw3qVbnb2tdOFygPWhKCzL05Az17m2EOrVG9xz_DDeZPUL4gbZrEyysad8DOMNXebpuYG7KD86CTmr3_X6St01MVot7AFVuDVstzIfyAEEgmHc3GaE9rHTIW6DwvHNt97azz4lJYix1zkcIHSvg8vJCGdEePdTwNPjaf5OtYftJdpFhG7tG1Wu72OyX6oFiQwWudUwKRWSfW0Ui-mBCGE7EpkYlWgLqHXCojaPGYcsu8ZuqGJFxHfmlk1iLZGiHl98CgWjztDsdtRtb51fozcJUXWWwbxmU8998BayvEBZ1R6CZ_QMjnAvhROdYdGfO_GREPYP6nYG7T3h9vB1H-G9rhHXlJ9a6JVJB7PxUHnZqhusIIwXyjwubJaBbe-fR-4KsOaJUpyHZjIYQJIgklq-jh6-va2zzbXAD8X946Fwh1XHMv0_X790t26t9DT6TcDuutwkfHoAPSBvrGE9vBj-5uw-D3uigw_gHfC6qCJCl3u3SgcbcUi5uuYynYEdOZhPdK6AU_toEie2TatEEkKZmE44YovBjNcgKVCrVUENfZLZ_XrU00s8_kmnHk-Lz3ZJngn4yJHZ32pTrBxyTWyOtflHdzwVHAZBzpkUKzumYw5ImDJbGVJio8eIaq3o9yEvcuPjsYvoYxeap2QrXXOD0RhgoCOXGYnWFp0t8xayu_qw-fDm_7--R-FU01f4_CUqRezKskWHvlBom-OIV1IU_7ET0x7WslXLJH90h2iqp99Sq3Zj-O73Ud62TUdLRMdsskBYqlhIr6v_u3?></g></svg>