<svg xmlns="http://www.w3.org/2000/svg" xmlns:xlink="http://www.w3.org/1999/xlink" version="1.1" data-diagram-type="GANTT" style="width:785px;height:362px;background:#FFFFFF;" width="785px" height="362px" viewBox="0 0 785 362" zoomAndPan="magnify" preserveAspectRatio="none" contentStyleType="text/css"><?plantuml 1.2026.8?><defs/><g font-family="sans-serif" lengthAdjust="spacing"><g class="title" data-source-line="1"><text x="321.941" y="22.995" fill="#000" font-size="14" textLength="139.255" font-weight="700">Передача ставок</text><text x="204.9" y="39.292" fill="#000" font-size="14" textLength="373.338" font-weight="700">Дорожка — кто делает. Стрелка — что ждём.</text><text x="152.489" y="55.589" fill="#000" font-size="14" textLength="478.16" font-weight="700">T19 после сервиса ставок. Роль call-center после Gateway.</text></g><line x1="0" y1="69.891" x2="144.106" y2="69.891" style="stroke:#C0C0C0;stroke-width:1;"/><line x1="0" y1="96.891" x2="144.106" y2="96.891" style="stroke:#C0C0C0;stroke-width:1;"/><line x1="0" y1="345.742" x2="144.106" y2="345.742" style="stroke:#C0C0C0;stroke-width:1;"/><line x1="0" y1="69.891" x2="0" y2="345.742" style="stroke:#C0C0C0;stroke-width:1;"/><line x1="45.42" y1="69.891" x2="45.42" y2="345.742" style="stroke:#C0C0C0;stroke-width:1;"/><line x1="90.674" y1="69.891" x2="90.674" y2="345.742" style="stroke:#C0C0C0;stroke-width:1;"/><line x1="144.106" y1="69.891" x2="144.106" y2="345.742" style="stroke:#C0C0C0;stroke-width:1;"/><text x="5" y="86.853" fill="#000" font-size="10" textLength="24.429">Start</text><text x="50.42" y="86.853" fill="#000" font-size="10" textLength="19.004">End</text><text x="95.674" y="86.853" fill="#000" font-size="10" textLength="43.433">Duration</text><text x="5" y="141.56" fill="#000" font-size="10" textLength="35.42">Nov 16</text><text x="50.42" y="141.56" fill="#000" font-size="10" textLength="28.892">Dec 4</text><text x="95.674" y="141.56" fill="#000" font-size="10" textLength="39.507">19 days</text><text x="5" y="158.364" fill="#000" font-size="10" textLength="28.892">Dec 7</text><text x="50.42" y="158.364" fill="#000" font-size="10" textLength="35.254">Dec 25</text><text x="95.674" y="158.364" fill="#000" font-size="10" textLength="39.507">19 days</text><text x="5" y="175.169" fill="#000" font-size="10" textLength="28.892">Dec 7</text><text x="50.42" y="175.169" fill="#000" font-size="10" textLength="35.254">Dec 25</text><text x="95.674" y="175.169" fill="#000" font-size="10" textLength="39.507">19 days</text><text x="5" y="191.974" fill="#000" font-size="10" textLength="35.254">Dec 21</text><text x="50.42" y="191.974" fill="#000" font-size="10" textLength="24.956">Jan 8</text><text x="95.674" y="191.974" fill="#000" font-size="10" textLength="39.507">19 days</text><text x="5" y="241.583" fill="#000" font-size="10" textLength="31.318">Jan 11</text><text x="50.42" y="241.583" fill="#000" font-size="10" textLength="27.793">Feb 5</text><text x="95.674" y="241.583" fill="#000" font-size="10" textLength="39.507">26 days</text><text x="5" y="291.192" fill="#000" font-size="10" textLength="33.193">Oct 12</text><text x="50.42" y="291.192" fill="#000" font-size="10" textLength="33.193">Oct 30</text><text x="95.674" y="291.192" fill="#000" font-size="10" textLength="39.507">19 days</text><text x="5" y="340.802" fill="#000" font-size="10" textLength="35.254">Dec 28</text><text x="50.42" y="340.802" fill="#000" font-size="10" textLength="31.318">Jan 15</text><text x="95.674" y="340.802" fill="#000" font-size="10" textLength="39.507">19 days</text><rect x="164.106" y="96.891" width="8" height="248.852" fill="#F1E5E5" style="stroke:none;"/><rect x="192.106" y="96.891" width="8" height="248.852" fill="#F1E5E5" style="stroke:none;"/><rect x="220.106" y="96.891" width="8" height="248.852" fill="#F1E5E5" style="stroke:none;"/><rect x="248.106" y="96.891" width="8" height="248.852" fill="#F1E5E5" style="stroke:none;"/><rect x="276.106" y="96.891" width="8" height="248.852" fill="#F1E5E5" style="stroke:none;"/><rect x="304.106" y="96.891" width="8" height="248.852" fill="#F1E5E5" style="stroke:none;"/><rect x="332.106" y="96.891" width="8" height="248.852" fill="#F1E5E5" style="stroke:none;"/><rect x="360.106" y="96.891" width="8" height="248.852" fill="#F1E5E5" style="stroke:none;"/><rect x="388.106" y="96.891" width="8" height="248.852" fill="#F1E5E5" style="stroke:none;"/><rect x="416.106" y="96.891" width="8" height="248.852" fill="#F1E5E5" style="stroke:none;"/><rect x="444.106" y="96.891" width="8" height="248.852" fill="#F1E5E5" style="stroke:none;"/><rect x="472.106" y="96.891" width="8" height="248.852" fill="#F1E5E5" style="stroke:none;"/><rect x="500.106" y="96.891" width="8" height="248.852" fill="#F1E5E5" style="stroke:none;"/><rect x="528.106" y="96.891" width="8" height="248.852" fill="#F1E5E5" style="stroke:none;"/><rect x="556.106" y="96.891" width="8" height="248.852" fill="#F1E5E5" style="stroke:none;"/><rect x="584.106" y="96.891" width="8" height="248.852" fill="#F1E5E5" style="stroke:none;"/><rect x="612.106" y="96.891" width="8" height="248.852" fill="#F1E5E5" style="stroke:none;"/><text x="149.106" y="95.173" fill="#000" font-size="10" textLength="12.725">41</text><text x="177.106" y="95.173" fill="#000" font-size="10" textLength="12.725">42</text><text x="205.106" y="95.173" fill="#000" font-size="10" textLength="12.725">43</text><text x="233.106" y="95.173" fill="#000" font-size="10" textLength="12.725">44</text><text x="261.106" y="95.173" fill="#000" font-size="10" textLength="12.725">45</text><text x="289.106" y="95.173" fill="#000" font-size="10" textLength="12.725">46</text><text x="317.106" y="95.173" fill="#000" font-size="10" textLength="12.725">47</text><text x="345.106" y="95.173" fill="#000" font-size="10" textLength="12.725">48</text><text x="373.106" y="95.173" fill="#000" font-size="10" textLength="12.725">49</text><text x="401.106" y="95.173" fill="#000" font-size="10" textLength="12.725">50</text><text x="429.106" y="95.173" fill="#000" font-size="10" textLength="12.725">51</text><text x="457.106" y="95.173" fill="#000" font-size="10" textLength="12.725">52</text><text x="485.106" y="95.173" fill="#000" font-size="10" textLength="12.725">53</text><text x="513.106" y="95.173" fill="#000" font-size="10">1</text><text x="541.106" y="95.173" fill="#000" font-size="10">2</text><text x="569.106" y="95.173" fill="#000" font-size="10">3</text><text x="597.106" y="95.173" fill="#000" font-size="10">4</text><text x="625.106" y="95.173" fill="#000" font-size="10">5</text><line x1="144.106" y1="85.891" x2="144.106" y2="345.742" style="stroke:#C0C0C0;stroke-width:1;"/><line x1="172.106" y1="85.891" x2="172.106" y2="345.742" style="stroke:#C0C0C0;stroke-width:1;"/><line x1="200.106" y1="85.891" x2="200.106" y2="345.742" style="stroke:#C0C0C0;stroke-width:1;"/><line x1="228.106" y1="85.891" x2="228.106" y2="345.742" style="stroke:#C0C0C0;stroke-width:1;"/><line x1="256.106" y1="85.891" x2="256.106" y2="345.742" style="stroke:#C0C0C0;stroke-width:1;"/><line x1="284.106" y1="85.891" x2="284.106" y2="345.742" style="stroke:#C0C0C0;stroke-width:1;"/><line x1="312.106" y1="85.891" x2="312.106" y2="345.742" style="stroke:#C0C0C0;stroke-width:1;"/><line x1="340.106" y1="85.891" x2="340.106" y2="345.742" style="stroke:#C0C0C0;stroke-width:1;"/><line x1="368.106" y1="85.891" x2="368.106" y2="345.742" style="stroke:#C0C0C0;stroke-width:1;"/><line x1="396.106" y1="85.891" x2="396.106" y2="345.742" style="stroke:#C0C0C0;stroke-width:1;"/><line x1="424.106" y1="85.891" x2="424.106" y2="345.742" style="stroke:#C0C0C0;stroke-width:1;"/><line x1="452.106" y1="85.891" x2="452.106" y2="345.742" style="stroke:#C0C0C0;stroke-width:1;"/><line x1="480.106" y1="85.891" x2="480.106" y2="345.742" style="stroke:#C0C0C0;stroke-width:1;"/><line x1="508.106" y1="85.891" x2="508.106" y2="345.742" style="stroke:#C0C0C0;stroke-width:1;"/><line x1="536.106" y1="85.891" x2="536.106" y2="345.742" style="stroke:#C0C0C0;stroke-width:1;"/><line x1="564.106" y1="85.891" x2="564.106" y2="345.742" style="stroke:#C0C0C0;stroke-width:1;"/><line x1="592.106" y1="85.891" x2="592.106" y2="345.742" style="stroke:#C0C0C0;stroke-width:1;"/><line x1="620.106" y1="85.891" x2="620.106" y2="345.742" style="stroke:#C0C0C0;stroke-width:1;"/><line x1="640.106" y1="85.891" x2="640.106" y2="345.742" style="stroke:#C0C0C0;stroke-width:1;"/><line x1="144.106" y1="69.891" x2="144.106" y2="85.891" style="stroke:#C0C0C0;stroke-width:1;"/><line x1="252.106" y1="69.891" x2="252.106" y2="85.891" style="stroke:#C0C0C0;stroke-width:1;"/><text x="167.793" y="81.029" fill="#000" font-size="12" textLength="60.627" font-weight="700">Oct 2026</text><line x1="372.106" y1="69.891" x2="372.106" y2="85.891" style="stroke:#C0C0C0;stroke-width:1;"/><text x="280.264" y="81.029" fill="#000" font-size="12" textLength="63.686" font-weight="700">Nov 2026</text><line x1="496.106" y1="69.891" x2="496.106" y2="85.891" style="stroke:#C0C0C0;stroke-width:1;"/><text x="402.712" y="81.029" fill="#000" font-size="12" textLength="62.789" font-weight="700">Dec 2026</text><line x1="620.106" y1="69.891" x2="620.106" y2="85.891" style="stroke:#C0C0C0;stroke-width:1;"/><text x="528.766" y="81.029" fill="#000" font-size="12" textLength="58.682" font-weight="700">Jan 2027</text><line x1="640.106" y1="69.891" x2="640.106" y2="85.891" style="stroke:#C0C0C0;stroke-width:1;"/><text x="620.106" y="81.029" fill="#000" font-size="12" textLength="24.926" font-weight="700">Feb</text><line x1="144.106" y1="69.891" x2="640.106" y2="69.891" style="stroke:#C0C0C0;stroke-width:1;"/><line x1="144.106" y1="85.891" x2="640.106" y2="85.891" style="stroke:#C0C0C0;stroke-width:1;"/><line x1="144.106" y1="96.891" x2="640.106" y2="96.891" style="stroke:#C0C0C0;stroke-width:1;"/><path d="M380.106,144.5 L380.106,154.902 L393.106,154.902" style="stroke:#181818;stroke-width:1.5;" fill="none"/><polygon points="392.106,150.902,396.106,154.902,392.106,158.902,392.106,150.902" fill="#181818" style="stroke:#181818;stroke-width:1;stroke-linejoin:miter;stroke-miterlimit:10;"/><path d="M380.106,144.5 L380.106,171.707 L393.106,171.707" style="stroke:#181818;stroke-width:1.5;" fill="none"/><polygon points="392.106,167.707,396.106,171.707,392.106,175.707,392.106,167.707" fill="#181818" style="stroke:#181818;stroke-width:1;stroke-linejoin:miter;stroke-miterlimit:10;"/><path d="M520.106,194.914 L520.106,238.121 L533.106,238.121" style="stroke:#181818;stroke-width:1.5;" fill="none"/><polygon points="532.106,234.121,536.106,238.121,532.106,242.121,532.106,234.121" fill="#181818" style="stroke:#181818;stroke-width:1;stroke-linejoin:miter;stroke-miterlimit:10;"/><path d="M464.106,161.305 L464.106,337.34 L477.106,337.34" style="stroke:#181818;stroke-width:1.5;" fill="none"/><polygon points="476.106,333.34,480.106,337.34,476.106,341.34,476.106,333.34" fill="#181818" style="stroke:#181818;stroke-width:1;stroke-linejoin:miter;stroke-miterlimit:10;"/><path d="M240.106,281.328 L240.106,154.902 L393.106,154.902" style="stroke:#181818;stroke-width:1.5;" fill="none"/><polygon points="392.106,150.902,396.106,154.902,392.106,158.902,392.106,150.902" fill="#181818" style="stroke:#181818;stroke-width:1;stroke-linejoin:miter;stroke-miterlimit:10;"/><path d="M240.106,281.328 L240.106,171.707 L393.106,171.707" style="stroke:#181818;stroke-width:1.5;" fill="none"/><polygon points="392.106,167.707,396.106,171.707,392.106,175.707,392.106,167.707" fill="#181818" style="stroke:#181818;stroke-width:1;stroke-linejoin:miter;stroke-miterlimit:10;"/><path d="M464.106,178.109 L464.106,337.34 L477.106,337.34" style="stroke:#181818;stroke-width:1.5;" fill="none"/><polygon points="476.106,333.34,480.106,337.34,476.106,341.34,476.106,333.34" fill="#181818" style="stroke:#181818;stroke-width:1;stroke-linejoin:miter;stroke-miterlimit:10;"/><line x1="144.106" y1="113.293" x2="149.106" y2="113.293" style="stroke:#181818;stroke-width:1;"/><line x1="306.656" y1="113.293" x2="639.106" y2="113.293" style="stroke:#181818;stroke-width:1;"/><rect x="314.106" y="131.695" width="19" height="12.805" fill="#E2E2F0" style="stroke:none;"/><path d="M332.106,144.5 L314.106,144.5 L314.106,131.695 L332.106,131.695" style="stroke:#181818;stroke-width:1;" fill="none"/><rect x="340.106" y="131.695" width="21" height="12.805" fill="#E2E2F0" style="stroke:none;"/><line x1="340.106" y1="131.695" x2="360.106" y2="131.695" style="stroke:#181818;stroke-width:1;"/><line x1="340.106" y1="144.5" x2="360.106" y2="144.5" style="stroke:#181818;stroke-width:1;"/><rect x="368.106" y="131.695" width="18" height="12.805" fill="#E2E2F0" style="stroke:none;"/><path d="M368.106,131.695 L386.106,131.695 L386.106,144.5 L368.106,144.5" style="stroke:#181818;stroke-width:1;" fill="none"/><line x1="335.106" y1="131.695" x2="337.106" y2="131.695" style="stroke:#181818;stroke-width:1;stroke-dasharray:2,3;"/><line x1="335.106" y1="144.5" x2="337.106" y2="144.5" style="stroke:#181818;stroke-width:1;stroke-dasharray:2,3;"/><line x1="363.106" y1="131.695" x2="365.106" y2="131.695" style="stroke:#181818;stroke-width:1;stroke-dasharray:2,3;"/><line x1="363.106" y1="144.5" x2="365.106" y2="144.5" style="stroke:#181818;stroke-width:1;stroke-dasharray:2,3;"/><rect x="398.106" y="148.5" width="19" height="12.805" fill="#E2E2F0" style="stroke:none;"/><path d="M416.106,161.305 L398.106,161.305 L398.106,148.5 L416.106,148.5" style="stroke:#181818;stroke-width:1;" fill="none"/><rect x="424.106" y="148.5" width="21" height="12.805" fill="#E2E2F0" style="stroke:none;"/><line x1="424.106" y1="148.5" x2="444.106" y2="148.5" style="stroke:#181818;stroke-width:1;"/><line x1="424.106" y1="161.305" x2="444.106" y2="161.305" style="stroke:#181818;stroke-width:1;"/><rect x="452.106" y="148.5" width="18" height="12.805" fill="#E2E2F0" style="stroke:none;"/><path d="M452.106,148.5 L470.106,148.5 L470.106,161.305 L452.106,161.305" style="stroke:#181818;stroke-width:1;" fill="none"/><line x1="419.106" y1="148.5" x2="421.106" y2="148.5" style="stroke:#181818;stroke-width:1;stroke-dasharray:2,3;"/><line x1="419.106" y1="161.305" x2="421.106" y2="161.305" style="stroke:#181818;stroke-width:1;stroke-dasharray:2,3;"/><line x1="447.106" y1="148.5" x2="449.106" y2="148.5" style="stroke:#181818;stroke-width:1;stroke-dasharray:2,3;"/><line x1="447.106" y1="161.305" x2="449.106" y2="161.305" style="stroke:#181818;stroke-width:1;stroke-dasharray:2,3;"/><rect x="398.106" y="165.305" width="19" height="12.805" fill="#E2E2F0" style="stroke:none;"/><path d="M416.106,178.109 L398.106,178.109 L398.106,165.305 L416.106,165.305" style="stroke:#181818;stroke-width:1;" fill="none"/><rect x="424.106" y="165.305" width="21" height="12.805" fill="#E2E2F0" style="stroke:none;"/><line x1="424.106" y1="165.305" x2="444.106" y2="165.305" style="stroke:#181818;stroke-width:1;"/><line x1="424.106" y1="178.109" x2="444.106" y2="178.109" style="stroke:#181818;stroke-width:1;"/><rect x="452.106" y="165.305" width="18" height="12.805" fill="#E2E2F0" style="stroke:none;"/><path d="M452.106,165.305 L470.106,165.305 L470.106,178.109 L452.106,178.109" style="stroke:#181818;stroke-width:1;" fill="none"/><line x1="419.106" y1="165.305" x2="421.106" y2="165.305" style="stroke:#181818;stroke-width:1;stroke-dasharray:2,3;"/><line x1="419.106" y1="178.109" x2="421.106" y2="178.109" style="stroke:#181818;stroke-width:1;stroke-dasharray:2,3;"/><line x1="447.106" y1="165.305" x2="449.106" y2="165.305" style="stroke:#181818;stroke-width:1;stroke-dasharray:2,3;"/><line x1="447.106" y1="178.109" x2="449.106" y2="178.109" style="stroke:#181818;stroke-width:1;stroke-dasharray:2,3;"/><rect x="454.106" y="182.109" width="19" height="12.805" fill="#E2E2F0" style="stroke:none;"/><path d="M472.106,194.914 L454.106,194.914 L454.106,182.109 L472.106,182.109" style="stroke:#181818;stroke-width:1;" fill="none"/><rect x="480.106" y="182.109" width="21" height="12.805" fill="#E2E2F0" style="stroke:none;"/><line x1="480.106" y1="182.109" x2="500.106" y2="182.109" style="stroke:#181818;stroke-width:1;"/><line x1="480.106" y1="194.914" x2="500.106" y2="194.914" style="stroke:#181818;stroke-width:1;"/><rect x="508.106" y="182.109" width="18" height="12.805" fill="#E2E2F0" style="stroke:none;"/><path d="M508.106,182.109 L526.106,182.109 L526.106,194.914 L508.106,194.914" style="stroke:#181818;stroke-width:1;" fill="none"/><line x1="475.106" y1="182.109" x2="477.106" y2="182.109" style="stroke:#181818;stroke-width:1;stroke-dasharray:2,3;"/><line x1="475.106" y1="194.914" x2="477.106" y2="194.914" style="stroke:#181818;stroke-width:1;stroke-dasharray:2,3;"/><line x1="503.106" y1="182.109" x2="505.106" y2="182.109" style="stroke:#181818;stroke-width:1;stroke-dasharray:2,3;"/><line x1="503.106" y1="194.914" x2="505.106" y2="194.914" style="stroke:#181818;stroke-width:1;stroke-dasharray:2,3;"/><line x1="144.106" y1="213.316" x2="149.106" y2="213.316" style="stroke:#181818;stroke-width:1;"/><line x1="292.659" y1="213.316" x2="639.106" y2="213.316" style="stroke:#181818;stroke-width:1;"/><rect x="538.106" y="231.719" width="19" height="12.805" fill="#E2E2F0" style="stroke:none;"/><path d="M556.106,244.523 L538.106,244.523 L538.106,231.719 L556.106,231.719" style="stroke:#181818;stroke-width:1;" fill="none"/><rect x="564.106" y="231.719" width="21" height="12.805" fill="#E2E2F0" style="stroke:none;"/><line x1="564.106" y1="231.719" x2="584.106" y2="231.719" style="stroke:#181818;stroke-width:1;"/><line x1="564.106" y1="244.523" x2="584.106" y2="244.523" style="stroke:#181818;stroke-width:1;"/><rect x="592.106" y="231.719" width="21" height="12.805" fill="#E2E2F0" style="stroke:none;"/><line x1="592.106" y1="231.719" x2="612.106" y2="231.719" style="stroke:#181818;stroke-width:1;"/><line x1="592.106" y1="244.523" x2="612.106" y2="244.523" style="stroke:#181818;stroke-width:1;"/><rect x="620.106" y="231.719" width="18" height="12.805" fill="#E2E2F0" style="stroke:none;"/><path d="M620.106,231.719 L638.106,231.719 L638.106,244.523 L620.106,244.523" style="stroke:#181818;stroke-width:1;" fill="none"/><line x1="559.106" y1="231.719" x2="561.106" y2="231.719" style="stroke:#181818;stroke-width:1;stroke-dasharray:2,3;"/><line x1="559.106" y1="244.523" x2="561.106" y2="244.523" style="stroke:#181818;stroke-width:1;stroke-dasharray:2,3;"/><line x1="587.106" y1="231.719" x2="589.106" y2="231.719" style="stroke:#181818;stroke-width:1;stroke-dasharray:2,3;"/><line x1="587.106" y1="244.523" x2="589.106" y2="244.523" style="stroke:#181818;stroke-width:1;stroke-dasharray:2,3;"/><line x1="615.106" y1="231.719" x2="617.106" y2="231.719" style="stroke:#181818;stroke-width:1;stroke-dasharray:2,3;"/><line x1="615.106" y1="244.523" x2="617.106" y2="244.523" style="stroke:#181818;stroke-width:1;stroke-dasharray:2,3;"/><line x1="144.106" y1="262.926" x2="149.106" y2="262.926" style="stroke:#181818;stroke-width:1;"/><line x1="241.236" y1="262.926" x2="639.106" y2="262.926" style="stroke:#181818;stroke-width:1;"/><rect x="174.106" y="281.328" width="19" height="12.805" fill="#E2E2F0" style="stroke:none;"/><path d="M192.106,294.133 L174.106,294.133 L174.106,281.328 L192.106,281.328" style="stroke:#181818;stroke-width:1;" fill="none"/><rect x="200.106" y="281.328" width="21" height="12.805" fill="#E2E2F0" style="stroke:none;"/><line x1="200.106" y1="281.328" x2="220.106" y2="281.328" style="stroke:#181818;stroke-width:1;"/><line x1="200.106" y1="294.133" x2="220.106" y2="294.133" style="stroke:#181818;stroke-width:1;"/><rect x="228.106" y="281.328" width="18" height="12.805" fill="#E2E2F0" style="stroke:none;"/><path d="M228.106,281.328 L246.106,281.328 L246.106,294.133 L228.106,294.133" style="stroke:#181818;stroke-width:1;" fill="none"/><line x1="195.106" y1="281.328" x2="197.106" y2="281.328" style="stroke:#181818;stroke-width:1;stroke-dasharray:2,3;"/><line x1="195.106" y1="294.133" x2="197.106" y2="294.133" style="stroke:#181818;stroke-width:1;stroke-dasharray:2,3;"/><line x1="223.106" y1="281.328" x2="225.106" y2="281.328" style="stroke:#181818;stroke-width:1;stroke-dasharray:2,3;"/><line x1="223.106" y1="294.133" x2="225.106" y2="294.133" style="stroke:#181818;stroke-width:1;stroke-dasharray:2,3;"/><line x1="144.106" y1="312.535" x2="149.106" y2="312.535" style="stroke:#181818;stroke-width:1;"/><line x1="264.858" y1="312.535" x2="639.106" y2="312.535" style="stroke:#181818;stroke-width:1;"/><rect x="482.106" y="330.938" width="19" height="12.805" fill="#E2E2F0" style="stroke:none;"/><path d="M500.106,343.742 L482.106,343.742 L482.106,330.938 L500.106,330.938" style="stroke:#181818;stroke-width:1;" fill="none"/><rect x="508.106" y="330.938" width="21" height="12.805" fill="#E2E2F0" style="stroke:none;"/><line x1="508.106" y1="330.938" x2="528.106" y2="330.938" style="stroke:#181818;stroke-width:1;"/><line x1="508.106" y1="343.742" x2="528.106" y2="343.742" style="stroke:#181818;stroke-width:1;"/><rect x="536.106" y="330.938" width="18" height="12.805" fill="#E2E2F0" style="stroke:none;"/><path d="M536.106,330.938 L554.106,330.938 L554.106,343.742 L536.106,343.742" style="stroke:#181818;stroke-width:1;" fill="none"/><line x1="503.106" y1="330.938" x2="505.106" y2="330.938" style="stroke:#181818;stroke-width:1;stroke-dasharray:2,3;"/><line x1="503.106" y1="343.742" x2="505.106" y2="343.742" style="stroke:#181818;stroke-width:1;stroke-dasharray:2,3;"/><line x1="531.106" y1="330.938" x2="533.106" y2="330.938" style="stroke:#181818;stroke-width:1;stroke-dasharray:2,3;"/><line x1="531.106" y1="343.742" x2="533.106" y2="343.742" style="stroke:#181818;stroke-width:1;stroke-dasharray:2,3;"/><text x="154.106" y="117.101" fill="#000" font-size="11" textLength="147.549">Команда интернет-банка</text><text x="390.106" y="141.906" fill="#000" font-size="11" textLength="125.506">T19 GET /rates/current</text><text x="474.106" y="158.71" fill="#000" font-size="11" textLength="152.222">T20 Выгрузка CSV на SFTP</text><text x="474.106" y="175.515" fill="#000" font-size="11" textLength="128.095">T21 Журнал выгрузки</text><text x="530.106" y="192.32" fill="#000" font-size="11" textLength="112.847">T22 Роль call-center</text><text x="154.106" y="217.125" fill="#000" font-size="11" textLength="133.552">Подрядчик кол-центра</text><text x="642.106" y="241.929" fill="#000" font-size="11" textLength="122.031">T23 Экран и адаптер</text><text x="154.106" y="266.734" fill="#000" font-size="11" textLength="82.129">IT-отдел, SFTP</text><text x="250.106" y="291.539" fill="#000" font-size="11" textLength="186.871">T24 Каталог и учётка на чтение</text><text x="154.106" y="316.343" fill="#000" font-size="11" textLength="105.751">Стык с партнёром</text><text x="558.106" y="341.148" fill="#000" font-size="11" textLength="160.3">T25 Проверка формата CSV</text><line x1="144.106" y1="345.742" x2="640.106" y2="345.742" style="stroke:#C0C0C0;stroke-width:1;"/><line x1="144.106" y1="345.742" x2="144.106" y2="361.742" style="stroke:#C0C0C0;stroke-width:1;"/><line x1="252.106" y1="345.742" x2="252.106" y2="361.742" style="stroke:#C0C0C0;stroke-width:1;"/><text x="167.793" y="356.881" fill="#000" font-size="12" textLength="60.627" font-weight="700">Oct 2026</text><line x1="372.106" y1="345.742" x2="372.106" y2="361.742" style="stroke:#C0C0C0;stroke-width:1;"/><text x="280.264" y="356.881" fill="#000" font-size="12" textLength="63.686" font-weight="700">Nov 2026</text><line x1="496.106" y1="345.742" x2="496.106" y2="361.742" style="stroke:#C0C0C0;stroke-width:1;"/><text x="402.712" y="356.881" fill="#000" font-size="12" textLength="62.789" font-weight="700">Dec 2026</text><line x1="620.106" y1="345.742" x2="620.106" y2="361.742" style="stroke:#C0C0C0;stroke-width:1;"/><text x="528.766" y="356.881" fill="#000" font-size="12" textLength="58.682" font-weight="700">Jan 2027</text><line x1="640.106" y1="345.742" x2="640.106" y2="361.742" style="stroke:#C0C0C0;stroke-width:1;"/><text x="620.106" y="356.881" fill="#000" font-size="12" textLength="24.926" font-weight="700">Feb</text><line x1="144.106" y1="361.742" x2="640.106" y2="361.742" style="stroke:#C0C0C0;stroke-width:1;"/><?plantuml-src xLNBJjjG4DtxAsR79Wwn0uXsXLIrg3iaecuA2oknAjh8LBOZn2uaLTCAL4I5M7H3-m6LJ8WXpOjVcFiB_PAUkJSy4eWeiCqYJcBFd3bpviprKXHxOVpE2-BOYZVYiazypAcgSiejJbI34r8xgiO9Dtd0dRM03tc0nmC-umuU_gqU4dSGC20afDn5PAfgMU9VggPXkbTngc7YphYb3hYNNGiApZFY2m3k82n59LswoMty6YqCm9_uxgezAdhbibtqWzWFRoOlUx6_vMrdBUjZk1744S9yslBz3-LjQoNSVEyNOzBDHkJct0NRoTcvUIlouafOyhR92tqgbZSZlsH5bM3iZZL31HTzWa5VD94MmMwVd3nn7nJs-KHLyL-GCoHj6VAuMLDr2ITkac6Axklgc_hARVwZ6m12QiHJU_ZTHhTISFxEWej6PsWwKbAFHDIvLTTrnZAU3oSWdDh2DIFVtDDPN_2f8tVtMa_f7HZjonpqWJ5oJs1Iak580vdByHRSN1QNl0PtqSGvWFSnnOwgYrYfALytvRcfTW4WjccP2E4gefp31UXacDBIpZW3L0qJjctY7y81QNqngj3h8ro2-jAspIVwcNZFjgstCfBbbmMQ3T5MD5kiX24Sj3xg2CTs5iWBIbJs8jpCQ_j4I7PpnDz1z5JK0JD1VR7wHhWbjFggi785vCKqgTPCH3wmxyI7laUGHCWdt3MgN1ThFnNUlNDxnhftRT2udQx5FaPsIyo3QqCSQhpPjTLdZAklLtqej4p-DqPP5VtrY6Mq2L-OyOosCedPhMRcRh1vNR2nSZMpCXcj_x3qdDWYqQT65wYdKXwoDiIuUcXwODgegTwqT7tyJ73SIHh8WGQlOiDaQ_MAeVC3lNcz8G7O_LZVQ6ehIadrIH-OFSDBR3CcmRtUcZZPXplpCGgPyWzswTDAFKR8--WDqPTmCIyyQsdwzlkVjz_ql9sUjzFpTdhUFlcyTR8ozkpYFm00?></g></svg>