<svg xmlns="http://www.w3.org/2000/svg" xmlns:xlink="http://www.w3.org/1999/xlink" version="1.1" data-diagram-type="GANTT" style="width:738px;height:611px;background:#FFFFFF;" width="738px" height="611px" viewBox="0 0 738 611" zoomAndPan="magnify" preserveAspectRatio="none" contentStyleType="text/css"><?plantuml 1.2026.8?><defs/><g font-family="sans-serif" lengthAdjust="spacing"><g class="title" data-source-line="1"><text x="296.509" y="22.995" fill="#000" font-size="14" textLength="143.309" font-weight="700">Заявка на кредит</text><text x="181.494" y="39.292" fill="#000" font-size="14" textLength="373.338" font-weight="700">Дорожка — кто делает. Стрелка — что ждём.</text><text x="92.261" y="55.589" fill="#000" font-size="14" textLength="551.804" font-weight="700">Старт после выкладки депозита. Выкладка кредита — 12-23 июля.</text></g><line x1="0" y1="69.891" x2="146.587" y2="69.891" style="stroke:#C0C0C0;stroke-width:1;"/><line x1="0" y1="96.891" x2="146.587" y2="96.891" style="stroke:#C0C0C0;stroke-width:1;"/><line x1="0" y1="594.594" x2="146.587" y2="594.594" style="stroke:#C0C0C0;stroke-width:1;"/><line x1="0" y1="69.891" x2="0" y2="594.594" style="stroke:#C0C0C0;stroke-width:1;"/><line x1="46.577" y1="69.891" x2="46.577" y2="594.594" style="stroke:#C0C0C0;stroke-width:1;"/><line x1="93.154" y1="69.891" x2="93.154" y2="594.594" style="stroke:#C0C0C0;stroke-width:1;"/><line x1="146.587" y1="69.891" x2="146.587" y2="594.594" style="stroke:#C0C0C0;stroke-width:1;"/><text x="5" y="86.853" fill="#000" font-size="10" textLength="24.429">Start</text><text x="51.577" y="86.853" fill="#000" font-size="10" textLength="19.004">End</text><text x="98.154" y="86.853" fill="#000" font-size="10" textLength="43.433">Duration</text><text x="5" y="141.56" fill="#000" font-size="10" textLength="26.841">Apr 5</text><text x="51.577" y="141.56" fill="#000" font-size="10" textLength="33.203">Apr 30</text><text x="98.154" y="141.56" fill="#000" font-size="10" textLength="39.507">26 days</text><text x="5" y="158.364" fill="#000" font-size="10" textLength="30.215">May 3</text><text x="51.577" y="158.364" fill="#000" font-size="10" textLength="36.577">May 21</text><text x="98.154" y="158.364" fill="#000" font-size="10" textLength="39.507">19 days</text><text x="5" y="175.169" fill="#000" font-size="10" textLength="36.577">May 24</text><text x="51.577" y="175.169" fill="#000" font-size="10" textLength="31.528">Jun 18</text><text x="98.154" y="175.169" fill="#000" font-size="10" textLength="39.507">26 days</text><text x="5" y="191.974" fill="#000" font-size="10" textLength="36.577">May 31</text><text x="51.577" y="191.974" fill="#000" font-size="10" textLength="31.528">Jun 18</text><text x="98.154" y="191.974" fill="#000" font-size="10" textLength="39.507">19 days</text><text x="5" y="241.583" fill="#000" font-size="10" textLength="36.577">May 24</text><text x="51.577" y="241.583" fill="#000" font-size="10" textLength="31.528">Jun 18</text><text x="98.154" y="241.583" fill="#000" font-size="10" textLength="39.507">26 days</text><text x="5" y="291.192" fill="#000" font-size="10" textLength="26.841">Apr 5</text><text x="51.577" y="291.192" fill="#000" font-size="10" textLength="33.203">Apr 23</text><text x="98.154" y="291.192" fill="#000" font-size="10" textLength="39.507">19 days</text><text x="5" y="307.997" fill="#000" font-size="10" textLength="33.203">Apr 26</text><text x="51.577" y="307.997" fill="#000" font-size="10" textLength="36.577">May 21</text><text x="98.154" y="307.997" fill="#000" font-size="10" textLength="39.507">26 days</text><text x="5" y="324.802" fill="#000" font-size="10" textLength="36.577">May 24</text><text x="51.577" y="324.802" fill="#000" font-size="10" textLength="31.528">Jun 11</text><text x="98.154" y="324.802" fill="#000" font-size="10" textLength="39.507">19 days</text><text x="5" y="374.411" fill="#000" font-size="10" textLength="26.841">Apr 5</text><text x="51.577" y="374.411" fill="#000" font-size="10" textLength="33.203">Apr 23</text><text x="98.154" y="374.411" fill="#000" font-size="10" textLength="39.507">19 days</text><text x="5" y="391.216" fill="#000" font-size="10" textLength="30.215">May 3</text><text x="51.577" y="391.216" fill="#000" font-size="10" textLength="36.577">May 28</text><text x="98.154" y="391.216" fill="#000" font-size="10" textLength="39.507">26 days</text><text x="5" y="440.825" fill="#000" font-size="10" textLength="36.577">May 31</text><text x="51.577" y="440.825" fill="#000" font-size="10" textLength="31.528">Jun 18</text><text x="98.154" y="440.825" fill="#000" font-size="10" textLength="39.507">19 days</text><text x="5" y="490.435" fill="#000" font-size="10" textLength="26.841">Apr 5</text><text x="51.577" y="490.435" fill="#000" font-size="10" textLength="33.203">Apr 16</text><text x="98.154" y="490.435" fill="#000" font-size="10" textLength="39.507">12 days</text><text x="5" y="540.044" fill="#000" font-size="10" textLength="31.528">Jun 21</text><text x="51.577" y="540.044" fill="#000" font-size="10" textLength="21.606">Jul 9</text><text x="98.154" y="540.044" fill="#000" font-size="10" textLength="39.507">19 days</text><text x="5" y="589.653" fill="#000" font-size="10" textLength="27.969">Jul 12</text><text x="51.577" y="589.653" fill="#000" font-size="10" textLength="27.969">Jul 23</text><text x="98.154" y="589.653" fill="#000" font-size="10" textLength="39.507">12 days</text><rect x="166.587" y="96.891" width="8" height="497.703" fill="#F1E5E5" style="stroke:none;"/><rect x="194.587" y="96.891" width="8" height="497.703" fill="#F1E5E5" style="stroke:none;"/><rect x="222.587" y="96.891" width="8" height="497.703" fill="#F1E5E5" style="stroke:none;"/><rect x="250.587" y="96.891" width="8" height="497.703" fill="#F1E5E5" style="stroke:none;"/><rect x="278.587" y="96.891" width="8" height="497.703" fill="#F1E5E5" style="stroke:none;"/><rect x="306.587" y="96.891" width="8" height="497.703" fill="#F1E5E5" style="stroke:none;"/><rect x="334.587" y="96.891" width="8" height="497.703" fill="#F1E5E5" style="stroke:none;"/><rect x="362.587" y="96.891" width="8" height="497.703" fill="#F1E5E5" style="stroke:none;"/><rect x="390.587" y="96.891" width="8" height="497.703" fill="#F1E5E5" style="stroke:none;"/><rect x="418.587" y="96.891" width="8" height="497.703" fill="#F1E5E5" style="stroke:none;"/><rect x="446.587" y="96.891" width="8" height="497.703" fill="#F1E5E5" style="stroke:none;"/><rect x="474.587" y="96.891" width="8" height="497.703" fill="#F1E5E5" style="stroke:none;"/><rect x="502.587" y="96.891" width="8" height="497.703" fill="#F1E5E5" style="stroke:none;"/><rect x="530.587" y="96.891" width="8" height="497.703" fill="#F1E5E5" style="stroke:none;"/><rect x="558.587" y="96.891" width="8" height="497.703" fill="#F1E5E5" style="stroke:none;"/><text x="151.587" y="95.173" fill="#000" font-size="10" textLength="12.725">14</text><text x="179.587" y="95.173" fill="#000" font-size="10" textLength="12.725">15</text><text x="207.587" y="95.173" fill="#000" font-size="10" textLength="12.725">16</text><text x="235.587" y="95.173" fill="#000" font-size="10" textLength="12.725">17</text><text x="263.587" y="95.173" fill="#000" font-size="10" textLength="12.725">18</text><text x="291.587" y="95.173" fill="#000" font-size="10" textLength="12.725">19</text><text x="319.587" y="95.173" fill="#000" font-size="10" textLength="12.725">20</text><text x="347.587" y="95.173" fill="#000" font-size="10" textLength="12.725">21</text><text x="375.587" y="95.173" fill="#000" font-size="10" textLength="12.725">22</text><text x="403.587" y="95.173" fill="#000" font-size="10" textLength="12.725">23</text><text x="431.587" y="95.173" fill="#000" font-size="10" textLength="12.725">24</text><text x="459.587" y="95.173" fill="#000" font-size="10" textLength="12.725">25</text><text x="487.587" y="95.173" fill="#000" font-size="10" textLength="12.725">26</text><text x="515.587" y="95.173" fill="#000" font-size="10" textLength="12.725">27</text><text x="543.587" y="95.173" fill="#000" font-size="10" textLength="12.725">28</text><text x="571.587" y="95.173" fill="#000" font-size="10" textLength="12.725">29</text><line x1="146.587" y1="85.891" x2="146.587" y2="594.594" style="stroke:#C0C0C0;stroke-width:1;"/><line x1="174.587" y1="85.891" x2="174.587" y2="594.594" style="stroke:#C0C0C0;stroke-width:1;"/><line x1="202.587" y1="85.891" x2="202.587" y2="594.594" style="stroke:#C0C0C0;stroke-width:1;"/><line x1="230.587" y1="85.891" x2="230.587" y2="594.594" style="stroke:#C0C0C0;stroke-width:1;"/><line x1="258.587" y1="85.891" x2="258.587" y2="594.594" style="stroke:#C0C0C0;stroke-width:1;"/><line x1="286.587" y1="85.891" x2="286.587" y2="594.594" style="stroke:#C0C0C0;stroke-width:1;"/><line x1="314.587" y1="85.891" x2="314.587" y2="594.594" style="stroke:#C0C0C0;stroke-width:1;"/><line x1="342.587" y1="85.891" x2="342.587" y2="594.594" style="stroke:#C0C0C0;stroke-width:1;"/><line x1="370.587" y1="85.891" x2="370.587" y2="594.594" style="stroke:#C0C0C0;stroke-width:1;"/><line x1="398.587" y1="85.891" x2="398.587" y2="594.594" style="stroke:#C0C0C0;stroke-width:1;"/><line x1="426.587" y1="85.891" x2="426.587" y2="594.594" style="stroke:#C0C0C0;stroke-width:1;"/><line x1="454.587" y1="85.891" x2="454.587" y2="594.594" style="stroke:#C0C0C0;stroke-width:1;"/><line x1="482.587" y1="85.891" x2="482.587" y2="594.594" style="stroke:#C0C0C0;stroke-width:1;"/><line x1="510.587" y1="85.891" x2="510.587" y2="594.594" style="stroke:#C0C0C0;stroke-width:1;"/><line x1="538.587" y1="85.891" x2="538.587" y2="594.594" style="stroke:#C0C0C0;stroke-width:1;"/><line x1="566.587" y1="85.891" x2="566.587" y2="594.594" style="stroke:#C0C0C0;stroke-width:1;"/><line x1="586.587" y1="85.891" x2="586.587" y2="594.594" style="stroke:#C0C0C0;stroke-width:1;"/><line x1="146.587" y1="69.891" x2="146.587" y2="85.891" style="stroke:#C0C0C0;stroke-width:1;"/><line x1="250.587" y1="69.891" x2="250.587" y2="85.891" style="stroke:#C0C0C0;stroke-width:1;"/><text x="167.901" y="81.029" fill="#000" font-size="12" textLength="61.371" font-weight="700">Apr 2027</text><line x1="374.587" y1="69.891" x2="374.587" y2="85.891" style="stroke:#C0C0C0;stroke-width:1;"/><text x="279.868" y="81.029" fill="#000" font-size="12" textLength="65.438" font-weight="700">May 2027</text><line x1="494.587" y1="69.891" x2="494.587" y2="85.891" style="stroke:#C0C0C0;stroke-width:1;"/><text x="405.023" y="81.029" fill="#000" font-size="12" textLength="59.127" font-weight="700">Jun 2027</text><line x1="586.587" y1="69.891" x2="586.587" y2="85.891" style="stroke:#C0C0C0;stroke-width:1;"/><text x="513.238" y="81.029" fill="#000" font-size="12" textLength="54.697" font-weight="700">Jul 2027</text><line x1="146.587" y1="69.891" x2="586.587" y2="69.891" style="stroke:#C0C0C0;stroke-width:1;"/><line x1="146.587" y1="85.891" x2="586.587" y2="85.891" style="stroke:#C0C0C0;stroke-width:1;"/><line x1="146.587" y1="96.891" x2="586.587" y2="96.891" style="stroke:#C0C0C0;stroke-width:1;"/><path d="M242.587,144.5 L242.587,154.902 L255.587,154.902" style="stroke:#181818;stroke-width:1.5;" fill="none"/><polygon points="254.587,150.902,258.587,154.902,254.587,158.902,254.587,150.902" fill="#181818" style="stroke:#181818;stroke-width:1;stroke-linejoin:miter;stroke-miterlimit:10;"/><path d="M326.587,161.305 L326.587,171.707 L339.587,171.707" style="stroke:#181818;stroke-width:1.5;" fill="none"/><polygon points="338.587,167.707,342.587,171.707,338.587,175.707,338.587,167.707" fill="#181818" style="stroke:#181818;stroke-width:1;stroke-linejoin:miter;stroke-miterlimit:10;"/><path d="M214.587,294.133 L214.587,304.535 L227.587,304.535" style="stroke:#181818;stroke-width:1.5;" fill="none"/><polygon points="226.587,300.535,230.587,304.535,226.587,308.535,226.587,300.535" fill="#181818" style="stroke:#181818;stroke-width:1;stroke-linejoin:miter;stroke-miterlimit:10;"/><path d="M326.587,310.938 L326.587,321.34 L339.587,321.34" style="stroke:#181818;stroke-width:1.5;" fill="none"/><polygon points="338.587,317.34,342.587,321.34,338.587,325.34,338.587,317.34" fill="#181818" style="stroke:#181818;stroke-width:1;stroke-linejoin:miter;stroke-miterlimit:10;"/><path d="M242.587,144.5 L242.587,387.754 L255.587,387.754" style="stroke:#181818;stroke-width:1.5;" fill="none"/><polygon points="254.587,383.754,258.587,387.754,254.587,391.754,254.587,383.754" fill="#181818" style="stroke:#181818;stroke-width:1;stroke-linejoin:miter;stroke-miterlimit:10;"/><path d="M354.587,394.156 L354.587,437.363 L367.587,437.363" style="stroke:#181818;stroke-width:1.5;" fill="none"/><polygon points="366.587,433.363,370.587,437.363,366.587,441.363,366.587,433.363" fill="#181818" style="stroke:#181818;stroke-width:1;stroke-linejoin:miter;stroke-miterlimit:10;"/><path d="M354.587,381.352 L354.587,188.512 L367.587,188.512" style="stroke:#181818;stroke-width:1.5;" fill="none"/><polygon points="366.587,184.512,370.587,188.512,366.587,192.512,366.587,184.512" fill="#181818" style="stroke:#181818;stroke-width:1;stroke-linejoin:miter;stroke-miterlimit:10;"/><path d="M326.587,298.133 L326.587,188.512 L367.587,188.512" style="stroke:#181818;stroke-width:1.5;" fill="none"/><polygon points="366.587,184.512,370.587,188.512,366.587,192.512,366.587,184.512" fill="#181818" style="stroke:#181818;stroke-width:1;stroke-linejoin:miter;stroke-miterlimit:10;"/><path d="M214.587,281.328 L214.587,171.707 L339.587,171.707" style="stroke:#181818;stroke-width:1.5;" fill="none"/><polygon points="338.587,167.707,342.587,171.707,338.587,175.707,338.587,167.707" fill="#181818" style="stroke:#181818;stroke-width:1;stroke-linejoin:miter;stroke-miterlimit:10;"/><path d="M214.587,364.547 L214.587,238.121 L339.587,238.121" style="stroke:#181818;stroke-width:1.5;" fill="none"/><polygon points="338.587,234.121,342.587,238.121,338.587,242.121,338.587,234.121" fill="#181818" style="stroke:#181818;stroke-width:1;stroke-linejoin:miter;stroke-miterlimit:10;"/><path d="M326.587,161.305 L326.587,238.121 L339.587,238.121" style="stroke:#181818;stroke-width:1.5;" fill="none"/><polygon points="338.587,234.121,342.587,238.121,338.587,242.121,338.587,234.121" fill="#181818" style="stroke:#181818;stroke-width:1;stroke-linejoin:miter;stroke-miterlimit:10;"/><path d="M438.587,244.523 L438.587,536.582 L451.587,536.582" style="stroke:#181818;stroke-width:1.5;" fill="none"/><polygon points="450.587,532.582,454.587,536.582,450.587,540.582,450.587,532.582" fill="#181818" style="stroke:#181818;stroke-width:1;stroke-linejoin:miter;stroke-miterlimit:10;"/><path d="M438.587,194.914 L438.587,536.582 L451.587,536.582" style="stroke:#181818;stroke-width:1.5;" fill="none"/><polygon points="450.587,532.582,454.587,536.582,450.587,540.582,450.587,532.582" fill="#181818" style="stroke:#181818;stroke-width:1;stroke-linejoin:miter;stroke-miterlimit:10;"/><path d="M438.587,178.109 L438.587,536.582 L451.587,536.582" style="stroke:#181818;stroke-width:1.5;" fill="none"/><polygon points="450.587,532.582,454.587,536.582,450.587,540.582,450.587,532.582" fill="#181818" style="stroke:#181818;stroke-width:1;stroke-linejoin:miter;stroke-miterlimit:10;"/><path d="M438.587,443.766 L438.587,536.582 L451.587,536.582" style="stroke:#181818;stroke-width:1.5;" fill="none"/><polygon points="450.587,532.582,454.587,536.582,450.587,540.582,450.587,532.582" fill="#181818" style="stroke:#181818;stroke-width:1;stroke-linejoin:miter;stroke-miterlimit:10;"/><path d="M410.587,327.742 L410.587,536.582 L451.587,536.582" style="stroke:#181818;stroke-width:1.5;" fill="none"/><polygon points="450.587,532.582,454.587,536.582,450.587,540.582,450.587,532.582" fill="#181818" style="stroke:#181818;stroke-width:1;stroke-linejoin:miter;stroke-miterlimit:10;"/><path d="M186.587,493.375 L186.587,536.582 L451.587,536.582" style="stroke:#181818;stroke-width:1.5;" fill="none"/><polygon points="450.587,532.582,454.587,536.582,450.587,540.582,450.587,532.582" fill="#181818" style="stroke:#181818;stroke-width:1;stroke-linejoin:miter;stroke-miterlimit:10;"/><path d="M522.587,542.984 L522.587,586.191 L535.587,586.191" style="stroke:#181818;stroke-width:1.5;" fill="none"/><polygon points="534.587,582.191,538.587,586.191,534.587,590.191,534.587,582.191" fill="#181818" style="stroke:#181818;stroke-width:1;stroke-linejoin:miter;stroke-miterlimit:10;"/><line x1="146.587" y1="113.293" x2="151.587" y2="113.293" style="stroke:#181818;stroke-width:1;"/><line x1="248.862" y1="113.293" x2="585.587" y2="113.293" style="stroke:#181818;stroke-width:1;"/><rect x="148.587" y="131.695" width="19" height="12.805" fill="#E2E2F0" style="stroke:none;"/><path d="M166.587,144.5 L148.587,144.5 L148.587,131.695 L166.587,131.695" style="stroke:#181818;stroke-width:1;" fill="none"/><rect x="174.587" y="131.695" width="21" height="12.805" fill="#E2E2F0" style="stroke:none;"/><line x1="174.587" y1="131.695" x2="194.587" y2="131.695" style="stroke:#181818;stroke-width:1;"/><line x1="174.587" y1="144.5" x2="194.587" y2="144.5" style="stroke:#181818;stroke-width:1;"/><rect x="202.587" y="131.695" width="21" height="12.805" fill="#E2E2F0" style="stroke:none;"/><line x1="202.587" y1="131.695" x2="222.587" y2="131.695" style="stroke:#181818;stroke-width:1;"/><line x1="202.587" y1="144.5" x2="222.587" y2="144.5" style="stroke:#181818;stroke-width:1;"/><rect x="230.587" y="131.695" width="18" height="12.805" fill="#E2E2F0" style="stroke:none;"/><path d="M230.587,131.695 L248.587,131.695 L248.587,144.5 L230.587,144.5" style="stroke:#181818;stroke-width:1;" fill="none"/><line x1="169.587" y1="131.695" x2="171.587" y2="131.695" style="stroke:#181818;stroke-width:1;stroke-dasharray:2,3;"/><line x1="169.587" y1="144.5" x2="171.587" y2="144.5" style="stroke:#181818;stroke-width:1;stroke-dasharray:2,3;"/><line x1="197.587" y1="131.695" x2="199.587" y2="131.695" style="stroke:#181818;stroke-width:1;stroke-dasharray:2,3;"/><line x1="197.587" y1="144.5" x2="199.587" y2="144.5" style="stroke:#181818;stroke-width:1;stroke-dasharray:2,3;"/><line x1="225.587" y1="131.695" x2="227.587" y2="131.695" style="stroke:#181818;stroke-width:1;stroke-dasharray:2,3;"/><line x1="225.587" y1="144.5" x2="227.587" y2="144.5" style="stroke:#181818;stroke-width:1;stroke-dasharray:2,3;"/><rect x="260.587" y="148.5" width="19" height="12.805" fill="#E2E2F0" style="stroke:none;"/><path d="M278.587,161.305 L260.587,161.305 L260.587,148.5 L278.587,148.5" style="stroke:#181818;stroke-width:1;" fill="none"/><rect x="286.587" y="148.5" width="21" height="12.805" fill="#E2E2F0" style="stroke:none;"/><line x1="286.587" y1="148.5" x2="306.587" y2="148.5" style="stroke:#181818;stroke-width:1;"/><line x1="286.587" y1="161.305" x2="306.587" y2="161.305" style="stroke:#181818;stroke-width:1;"/><rect x="314.587" y="148.5" width="18" height="12.805" fill="#E2E2F0" style="stroke:none;"/><path d="M314.587,148.5 L332.587,148.5 L332.587,161.305 L314.587,161.305" style="stroke:#181818;stroke-width:1;" fill="none"/><line x1="281.587" y1="148.5" x2="283.587" y2="148.5" style="stroke:#181818;stroke-width:1;stroke-dasharray:2,3;"/><line x1="281.587" y1="161.305" x2="283.587" y2="161.305" style="stroke:#181818;stroke-width:1;stroke-dasharray:2,3;"/><line x1="309.587" y1="148.5" x2="311.587" y2="148.5" style="stroke:#181818;stroke-width:1;stroke-dasharray:2,3;"/><line x1="309.587" y1="161.305" x2="311.587" y2="161.305" style="stroke:#181818;stroke-width:1;stroke-dasharray:2,3;"/><rect x="344.587" y="165.305" width="19" height="12.805" fill="#E2E2F0" style="stroke:none;"/><path d="M362.587,178.109 L344.587,178.109 L344.587,165.305 L362.587,165.305" style="stroke:#181818;stroke-width:1;" fill="none"/><rect x="370.587" y="165.305" width="21" height="12.805" fill="#E2E2F0" style="stroke:none;"/><line x1="370.587" y1="165.305" x2="390.587" y2="165.305" style="stroke:#181818;stroke-width:1;"/><line x1="370.587" y1="178.109" x2="390.587" y2="178.109" style="stroke:#181818;stroke-width:1;"/><rect x="398.587" y="165.305" width="21" height="12.805" fill="#E2E2F0" style="stroke:none;"/><line x1="398.587" y1="165.305" x2="418.587" y2="165.305" style="stroke:#181818;stroke-width:1;"/><line x1="398.587" y1="178.109" x2="418.587" y2="178.109" style="stroke:#181818;stroke-width:1;"/><rect x="426.587" y="165.305" width="18" height="12.805" fill="#E2E2F0" style="stroke:none;"/><path d="M426.587,165.305 L444.587,165.305 L444.587,178.109 L426.587,178.109" style="stroke:#181818;stroke-width:1;" fill="none"/><line x1="365.587" y1="165.305" x2="367.587" y2="165.305" style="stroke:#181818;stroke-width:1;stroke-dasharray:2,3;"/><line x1="365.587" y1="178.109" x2="367.587" y2="178.109" style="stroke:#181818;stroke-width:1;stroke-dasharray:2,3;"/><line x1="393.587" y1="165.305" x2="395.587" y2="165.305" style="stroke:#181818;stroke-width:1;stroke-dasharray:2,3;"/><line x1="393.587" y1="178.109" x2="395.587" y2="178.109" style="stroke:#181818;stroke-width:1;stroke-dasharray:2,3;"/><line x1="421.587" y1="165.305" x2="423.587" y2="165.305" style="stroke:#181818;stroke-width:1;stroke-dasharray:2,3;"/><line x1="421.587" y1="178.109" x2="423.587" y2="178.109" style="stroke:#181818;stroke-width:1;stroke-dasharray:2,3;"/><rect x="372.587" y="182.109" width="19" height="12.805" fill="#E2E2F0" style="stroke:none;"/><path d="M390.587,194.914 L372.587,194.914 L372.587,182.109 L390.587,182.109" style="stroke:#181818;stroke-width:1;" fill="none"/><rect x="398.587" y="182.109" width="21" height="12.805" fill="#E2E2F0" style="stroke:none;"/><line x1="398.587" y1="182.109" x2="418.587" y2="182.109" style="stroke:#181818;stroke-width:1;"/><line x1="398.587" y1="194.914" x2="418.587" y2="194.914" style="stroke:#181818;stroke-width:1;"/><rect x="426.587" y="182.109" width="18" height="12.805" fill="#E2E2F0" style="stroke:none;"/><path d="M426.587,182.109 L444.587,182.109 L444.587,194.914 L426.587,194.914" style="stroke:#181818;stroke-width:1;" fill="none"/><line x1="393.587" y1="182.109" x2="395.587" y2="182.109" style="stroke:#181818;stroke-width:1;stroke-dasharray:2,3;"/><line x1="393.587" y1="194.914" x2="395.587" y2="194.914" style="stroke:#181818;stroke-width:1;stroke-dasharray:2,3;"/><line x1="421.587" y1="182.109" x2="423.587" y2="182.109" style="stroke:#181818;stroke-width:1;stroke-dasharray:2,3;"/><line x1="421.587" y1="194.914" x2="423.587" y2="194.914" style="stroke:#181818;stroke-width:1;stroke-dasharray:2,3;"/><line x1="146.587" y1="213.316" x2="151.587" y2="213.316" style="stroke:#181818;stroke-width:1;"/><line x1="189.565" y1="213.316" x2="585.587" y2="213.316" style="stroke:#181818;stroke-width:1;"/><rect x="344.587" y="231.719" width="19" height="12.805" fill="#E2E2F0" style="stroke:none;"/><path d="M362.587,244.523 L344.587,244.523 L344.587,231.719 L362.587,231.719" style="stroke:#181818;stroke-width:1;" fill="none"/><rect x="370.587" y="231.719" width="21" height="12.805" fill="#E2E2F0" style="stroke:none;"/><line x1="370.587" y1="231.719" x2="390.587" y2="231.719" style="stroke:#181818;stroke-width:1;"/><line x1="370.587" y1="244.523" x2="390.587" y2="244.523" style="stroke:#181818;stroke-width:1;"/><rect x="398.587" y="231.719" width="21" height="12.805" fill="#E2E2F0" style="stroke:none;"/><line x1="398.587" y1="231.719" x2="418.587" y2="231.719" style="stroke:#181818;stroke-width:1;"/><line x1="398.587" y1="244.523" x2="418.587" y2="244.523" style="stroke:#181818;stroke-width:1;"/><rect x="426.587" y="231.719" width="18" height="12.805" fill="#E2E2F0" style="stroke:none;"/><path d="M426.587,231.719 L444.587,231.719 L444.587,244.523 L426.587,244.523" style="stroke:#181818;stroke-width:1;" fill="none"/><line x1="365.587" y1="231.719" x2="367.587" y2="231.719" style="stroke:#181818;stroke-width:1;stroke-dasharray:2,3;"/><line x1="365.587" y1="244.523" x2="367.587" y2="244.523" style="stroke:#181818;stroke-width:1;stroke-dasharray:2,3;"/><line x1="393.587" y1="231.719" x2="395.587" y2="231.719" style="stroke:#181818;stroke-width:1;stroke-dasharray:2,3;"/><line x1="393.587" y1="244.523" x2="395.587" y2="244.523" style="stroke:#181818;stroke-width:1;stroke-dasharray:2,3;"/><line x1="421.587" y1="231.719" x2="423.587" y2="231.719" style="stroke:#181818;stroke-width:1;stroke-dasharray:2,3;"/><line x1="421.587" y1="244.523" x2="423.587" y2="244.523" style="stroke:#181818;stroke-width:1;stroke-dasharray:2,3;"/><line x1="146.587" y1="262.926" x2="151.587" y2="262.926" style="stroke:#181818;stroke-width:1;"/><line x1="209.744" y1="262.926" x2="585.587" y2="262.926" style="stroke:#181818;stroke-width:1;"/><rect x="148.587" y="281.328" width="19" height="12.805" fill="#E2E2F0" style="stroke:none;"/><path d="M166.587,294.133 L148.587,294.133 L148.587,281.328 L166.587,281.328" style="stroke:#181818;stroke-width:1;" fill="none"/><rect x="174.587" y="281.328" width="21" height="12.805" fill="#E2E2F0" style="stroke:none;"/><line x1="174.587" y1="281.328" x2="194.587" y2="281.328" style="stroke:#181818;stroke-width:1;"/><line x1="174.587" y1="294.133" x2="194.587" y2="294.133" style="stroke:#181818;stroke-width:1;"/><rect x="202.587" y="281.328" width="18" height="12.805" fill="#E2E2F0" style="stroke:none;"/><path d="M202.587,281.328 L220.587,281.328 L220.587,294.133 L202.587,294.133" style="stroke:#181818;stroke-width:1;" fill="none"/><line x1="169.587" y1="281.328" x2="171.587" y2="281.328" style="stroke:#181818;stroke-width:1;stroke-dasharray:2,3;"/><line x1="169.587" y1="294.133" x2="171.587" y2="294.133" style="stroke:#181818;stroke-width:1;stroke-dasharray:2,3;"/><line x1="197.587" y1="281.328" x2="199.587" y2="281.328" style="stroke:#181818;stroke-width:1;stroke-dasharray:2,3;"/><line x1="197.587" y1="294.133" x2="199.587" y2="294.133" style="stroke:#181818;stroke-width:1;stroke-dasharray:2,3;"/><rect x="232.587" y="298.133" width="19" height="12.805" fill="#E2E2F0" style="stroke:none;"/><path d="M250.587,310.938 L232.587,310.938 L232.587,298.133 L250.587,298.133" style="stroke:#181818;stroke-width:1;" fill="none"/><rect x="258.587" y="298.133" width="21" height="12.805" fill="#E2E2F0" style="stroke:none;"/><line x1="258.587" y1="298.133" x2="278.587" y2="298.133" style="stroke:#181818;stroke-width:1;"/><line x1="258.587" y1="310.938" x2="278.587" y2="310.938" style="stroke:#181818;stroke-width:1;"/><rect x="286.587" y="298.133" width="21" height="12.805" fill="#E2E2F0" style="stroke:none;"/><line x1="286.587" y1="298.133" x2="306.587" y2="298.133" style="stroke:#181818;stroke-width:1;"/><line x1="286.587" y1="310.938" x2="306.587" y2="310.938" style="stroke:#181818;stroke-width:1;"/><rect x="314.587" y="298.133" width="18" height="12.805" fill="#E2E2F0" style="stroke:none;"/><path d="M314.587,298.133 L332.587,298.133 L332.587,310.938 L314.587,310.938" style="stroke:#181818;stroke-width:1;" fill="none"/><line x1="253.587" y1="298.133" x2="255.587" y2="298.133" style="stroke:#181818;stroke-width:1;stroke-dasharray:2,3;"/><line x1="253.587" y1="310.938" x2="255.587" y2="310.938" style="stroke:#181818;stroke-width:1;stroke-dasharray:2,3;"/><line x1="281.587" y1="298.133" x2="283.587" y2="298.133" style="stroke:#181818;stroke-width:1;stroke-dasharray:2,3;"/><line x1="281.587" y1="310.938" x2="283.587" y2="310.938" style="stroke:#181818;stroke-width:1;stroke-dasharray:2,3;"/><line x1="309.587" y1="298.133" x2="311.587" y2="298.133" style="stroke:#181818;stroke-width:1;stroke-dasharray:2,3;"/><line x1="309.587" y1="310.938" x2="311.587" y2="310.938" style="stroke:#181818;stroke-width:1;stroke-dasharray:2,3;"/><rect x="344.587" y="314.938" width="19" height="12.805" fill="#E2E2F0" style="stroke:none;"/><path d="M362.587,327.742 L344.587,327.742 L344.587,314.938 L362.587,314.938" style="stroke:#181818;stroke-width:1;" fill="none"/><rect x="370.587" y="314.938" width="21" height="12.805" fill="#E2E2F0" style="stroke:none;"/><line x1="370.587" y1="314.938" x2="390.587" y2="314.938" style="stroke:#181818;stroke-width:1;"/><line x1="370.587" y1="327.742" x2="390.587" y2="327.742" style="stroke:#181818;stroke-width:1;"/><rect x="398.587" y="314.938" width="18" height="12.805" fill="#E2E2F0" style="stroke:none;"/><path d="M398.587,314.938 L416.587,314.938 L416.587,327.742 L398.587,327.742" style="stroke:#181818;stroke-width:1;" fill="none"/><line x1="365.587" y1="314.938" x2="367.587" y2="314.938" style="stroke:#181818;stroke-width:1;stroke-dasharray:2,3;"/><line x1="365.587" y1="327.742" x2="367.587" y2="327.742" style="stroke:#181818;stroke-width:1;stroke-dasharray:2,3;"/><line x1="393.587" y1="314.938" x2="395.587" y2="314.938" style="stroke:#181818;stroke-width:1;stroke-dasharray:2,3;"/><line x1="393.587" y1="327.742" x2="395.587" y2="327.742" style="stroke:#181818;stroke-width:1;stroke-dasharray:2,3;"/><line x1="146.587" y1="346.145" x2="151.587" y2="346.145" style="stroke:#181818;stroke-width:1;"/><line x1="217.468" y1="346.145" x2="585.587" y2="346.145" style="stroke:#181818;stroke-width:1;"/><rect x="148.587" y="364.547" width="19" height="12.805" fill="#E2E2F0" style="stroke:none;"/><path d="M166.587,377.352 L148.587,377.352 L148.587,364.547 L166.587,364.547" style="stroke:#181818;stroke-width:1;" fill="none"/><rect x="174.587" y="364.547" width="21" height="12.805" fill="#E2E2F0" style="stroke:none;"/><line x1="174.587" y1="364.547" x2="194.587" y2="364.547" style="stroke:#181818;stroke-width:1;"/><line x1="174.587" y1="377.352" x2="194.587" y2="377.352" style="stroke:#181818;stroke-width:1;"/><rect x="202.587" y="364.547" width="18" height="12.805" fill="#E2E2F0" style="stroke:none;"/><path d="M202.587,364.547 L220.587,364.547 L220.587,377.352 L202.587,377.352" style="stroke:#181818;stroke-width:1;" fill="none"/><line x1="169.587" y1="364.547" x2="171.587" y2="364.547" style="stroke:#181818;stroke-width:1;stroke-dasharray:2,3;"/><line x1="169.587" y1="377.352" x2="171.587" y2="377.352" style="stroke:#181818;stroke-width:1;stroke-dasharray:2,3;"/><line x1="197.587" y1="364.547" x2="199.587" y2="364.547" style="stroke:#181818;stroke-width:1;stroke-dasharray:2,3;"/><line x1="197.587" y1="377.352" x2="199.587" y2="377.352" style="stroke:#181818;stroke-width:1;stroke-dasharray:2,3;"/><rect x="260.587" y="381.352" width="19" height="12.805" fill="#E2E2F0" style="stroke:none;"/><path d="M278.587,394.156 L260.587,394.156 L260.587,381.352 L278.587,381.352" style="stroke:#181818;stroke-width:1;" fill="none"/><rect x="286.587" y="381.352" width="21" height="12.805" fill="#E2E2F0" style="stroke:none;"/><line x1="286.587" y1="381.352" x2="306.587" y2="381.352" style="stroke:#181818;stroke-width:1;"/><line x1="286.587" y1="394.156" x2="306.587" y2="394.156" style="stroke:#181818;stroke-width:1;"/><rect x="314.587" y="381.352" width="21" height="12.805" fill="#E2E2F0" style="stroke:none;"/><line x1="314.587" y1="381.352" x2="334.587" y2="381.352" style="stroke:#181818;stroke-width:1;"/><line x1="314.587" y1="394.156" x2="334.587" y2="394.156" style="stroke:#181818;stroke-width:1;"/><rect x="342.587" y="381.352" width="18" height="12.805" fill="#E2E2F0" style="stroke:none;"/><path d="M342.587,381.352 L360.587,381.352 L360.587,394.156 L342.587,394.156" style="stroke:#181818;stroke-width:1;" fill="none"/><line x1="281.587" y1="381.352" x2="283.587" y2="381.352" style="stroke:#181818;stroke-width:1;stroke-dasharray:2,3;"/><line x1="281.587" y1="394.156" x2="283.587" y2="394.156" style="stroke:#181818;stroke-width:1;stroke-dasharray:2,3;"/><line x1="309.587" y1="381.352" x2="311.587" y2="381.352" style="stroke:#181818;stroke-width:1;stroke-dasharray:2,3;"/><line x1="309.587" y1="394.156" x2="311.587" y2="394.156" style="stroke:#181818;stroke-width:1;stroke-dasharray:2,3;"/><line x1="337.587" y1="381.352" x2="339.587" y2="381.352" style="stroke:#181818;stroke-width:1;stroke-dasharray:2,3;"/><line x1="337.587" y1="394.156" x2="339.587" y2="394.156" style="stroke:#181818;stroke-width:1;stroke-dasharray:2,3;"/><line x1="146.587" y1="412.559" x2="151.587" y2="412.559" style="stroke:#181818;stroke-width:1;"/><line x1="184.339" y1="412.559" x2="585.587" y2="412.559" style="stroke:#181818;stroke-width:1;"/><rect x="372.587" y="430.961" width="19" height="12.805" fill="#E2E2F0" style="stroke:none;"/><path d="M390.587,443.766 L372.587,443.766 L372.587,430.961 L390.587,430.961" style="stroke:#181818;stroke-width:1;" fill="none"/><rect x="398.587" y="430.961" width="21" height="12.805" fill="#E2E2F0" style="stroke:none;"/><line x1="398.587" y1="430.961" x2="418.587" y2="430.961" style="stroke:#181818;stroke-width:1;"/><line x1="398.587" y1="443.766" x2="418.587" y2="443.766" style="stroke:#181818;stroke-width:1;"/><rect x="426.587" y="430.961" width="18" height="12.805" fill="#E2E2F0" style="stroke:none;"/><path d="M426.587,430.961 L444.587,430.961 L444.587,443.766 L426.587,443.766" style="stroke:#181818;stroke-width:1;" fill="none"/><line x1="393.587" y1="430.961" x2="395.587" y2="430.961" style="stroke:#181818;stroke-width:1;stroke-dasharray:2,3;"/><line x1="393.587" y1="443.766" x2="395.587" y2="443.766" style="stroke:#181818;stroke-width:1;stroke-dasharray:2,3;"/><line x1="421.587" y1="430.961" x2="423.587" y2="430.961" style="stroke:#181818;stroke-width:1;stroke-dasharray:2,3;"/><line x1="421.587" y1="443.766" x2="423.587" y2="443.766" style="stroke:#181818;stroke-width:1;stroke-dasharray:2,3;"/><line x1="146.587" y1="462.168" x2="151.587" y2="462.168" style="stroke:#181818;stroke-width:1;"/><line x1="186.439" y1="462.168" x2="585.587" y2="462.168" style="stroke:#181818;stroke-width:1;"/><rect x="148.587" y="480.57" width="19" height="12.805" fill="#E2E2F0" style="stroke:none;"/><path d="M166.587,493.375 L148.587,493.375 L148.587,480.57 L166.587,480.57" style="stroke:#181818;stroke-width:1;" fill="none"/><rect x="174.587" y="480.57" width="18" height="12.805" fill="#E2E2F0" style="stroke:none;"/><path d="M174.587,480.57 L192.587,480.57 L192.587,493.375 L174.587,493.375" style="stroke:#181818;stroke-width:1;" fill="none"/><line x1="169.587" y1="480.57" x2="171.587" y2="480.57" style="stroke:#181818;stroke-width:1;stroke-dasharray:2,3;"/><line x1="169.587" y1="493.375" x2="171.587" y2="493.375" style="stroke:#181818;stroke-width:1;stroke-dasharray:2,3;"/><line x1="146.587" y1="511.777" x2="151.587" y2="511.777" style="stroke:#181818;stroke-width:1;"/><line x1="217.597" y1="511.777" x2="585.587" y2="511.777" style="stroke:#181818;stroke-width:1;"/><rect x="456.587" y="530.18" width="19" height="12.805" fill="#E2E2F0" style="stroke:none;"/><path d="M474.587,542.984 L456.587,542.984 L456.587,530.18 L474.587,530.18" style="stroke:#181818;stroke-width:1;" fill="none"/><rect x="482.587" y="530.18" width="21" height="12.805" fill="#E2E2F0" style="stroke:none;"/><line x1="482.587" y1="530.18" x2="502.587" y2="530.18" style="stroke:#181818;stroke-width:1;"/><line x1="482.587" y1="542.984" x2="502.587" y2="542.984" style="stroke:#181818;stroke-width:1;"/><rect x="510.587" y="530.18" width="18" height="12.805" fill="#E2E2F0" style="stroke:none;"/><path d="M510.587,530.18 L528.587,530.18 L528.587,542.984 L510.587,542.984" style="stroke:#181818;stroke-width:1;" fill="none"/><line x1="477.587" y1="530.18" x2="479.587" y2="530.18" style="stroke:#181818;stroke-width:1;stroke-dasharray:2,3;"/><line x1="477.587" y1="542.984" x2="479.587" y2="542.984" style="stroke:#181818;stroke-width:1;stroke-dasharray:2,3;"/><line x1="505.587" y1="530.18" x2="507.587" y2="530.18" style="stroke:#181818;stroke-width:1;stroke-dasharray:2,3;"/><line x1="505.587" y1="542.984" x2="507.587" y2="542.984" style="stroke:#181818;stroke-width:1;stroke-dasharray:2,3;"/><line x1="146.587" y1="561.387" x2="151.587" y2="561.387" style="stroke:#181818;stroke-width:1;"/><line x1="191.176" y1="561.387" x2="585.587" y2="561.387" style="stroke:#181818;stroke-width:1;"/><rect x="540.587" y="579.789" width="19" height="12.805" fill="#E2E2F0" style="stroke:none;"/><path d="M558.587,592.594 L540.587,592.594 L540.587,579.789 L558.587,579.789" style="stroke:#181818;stroke-width:1;" fill="none"/><rect x="566.587" y="579.789" width="18" height="12.805" fill="#E2E2F0" style="stroke:none;"/><path d="M566.587,579.789 L584.587,579.789 L584.587,592.594 L566.587,592.594" style="stroke:#181818;stroke-width:1;" fill="none"/><line x1="561.587" y1="579.789" x2="563.587" y2="579.789" style="stroke:#181818;stroke-width:1;stroke-dasharray:2,3;"/><line x1="561.587" y1="592.594" x2="563.587" y2="592.594" style="stroke:#181818;stroke-width:1;stroke-dasharray:2,3;"/><text x="156.587" y="117.101" fill="#000" font-size="11" textLength="87.275">Интернет-банк</text><text x="252.587" y="141.906" fill="#000" font-size="11" textLength="162.476">T26 POST /credit-applications</text><text x="336.587" y="158.71" fill="#000" font-size="11" textLength="138.166">T27 Маршруты Gateway</text><text x="448.587" y="175.515" fill="#000" font-size="11" textLength="164.57">T35 Экраны интернет-банка</text><text x="448.587" y="192.32" fill="#000" font-size="11" textLength="146.899">T32 Публикация и статус</text><text x="156.587" y="217.125" fill="#000" font-size="11" textLength="27.978">Сайт</text><text x="448.587" y="241.929" fill="#000" font-size="11" textLength="96.035">T34 Экран сайта</text><text x="156.587" y="266.734" fill="#000" font-size="11" textLength="48.157">Скоринг</text><text x="224.587" y="291.539" fill="#000" font-size="11" textLength="125.877">T28 GET /preapprovals</text><text x="336.587" y="308.343" fill="#000" font-size="11" textLength="146.695">T29 Синхронный скоринг</text><text x="420.587" y="325.148" fill="#000" font-size="11" textLength="156.095">T30 Упрощённый пересчёт</text><text x="156.587" y="349.953" fill="#000" font-size="11" textLength="55.881">Конвейер</text><text x="224.587" y="374.757" fill="#000" font-size="11" textLength="116.633">T39 Чтение условий</text><text x="364.587" y="391.562" fill="#000" font-size="11" textLength="119.287">T31 Старт из топика</text><text x="156.587" y="416.367" fill="#000" font-size="11" textLength="22.752">АБС</text><text x="448.587" y="441.171" fill="#000" font-size="11" textLength="106.052">T36 Ночной обмен</text><text x="156.587" y="465.976" fill="#000" font-size="11" textLength="24.852">СМС</text><text x="196.587" y="490.781" fill="#000" font-size="11" textLength="107.486">T33 Шаблоны СМС</text><text x="156.587" y="515.585" fill="#000" font-size="11" textLength="56.01">Проверки</text><text x="532.587" y="540.39" fill="#000" font-size="11" textLength="184.739">T37 Проверка цепочки, не прод</text><text x="156.587" y="565.195" fill="#000" font-size="11" textLength="29.589">Прод</text><text x="588.587" y="590" fill="#000" font-size="11" textLength="123.836">T38 Выкладка в прод</text><line x1="146.587" y1="594.594" x2="586.587" y2="594.594" style="stroke:#C0C0C0;stroke-width:1;"/><line x1="146.587" y1="594.594" x2="146.587" y2="610.594" style="stroke:#C0C0C0;stroke-width:1;"/><line x1="250.587" y1="594.594" x2="250.587" y2="610.594" style="stroke:#C0C0C0;stroke-width:1;"/><text x="167.901" y="605.732" fill="#000" font-size="12" textLength="61.371" font-weight="700">Apr 2027</text><line x1="374.587" y1="594.594" x2="374.587" y2="610.594" style="stroke:#C0C0C0;stroke-width:1;"/><text x="279.868" y="605.732" fill="#000" font-size="12" textLength="65.438" font-weight="700">May 2027</text><line x1="494.587" y1="594.594" x2="494.587" y2="610.594" style="stroke:#C0C0C0;stroke-width:1;"/><text x="405.023" y="605.732" fill="#000" font-size="12" textLength="59.127" font-weight="700">Jun 2027</text><line x1="586.587" y1="594.594" x2="586.587" y2="610.594" style="stroke:#C0C0C0;stroke-width:1;"/><text x="513.238" y="605.732" fill="#000" font-size="12" textLength="54.697" font-weight="700">Jul 2027</text><line x1="146.587" y1="610.594" x2="586.587" y2="610.594" style="stroke:#C0C0C0;stroke-width:1;"/><?plantuml-src xLSzRzDG5DtzAzx6KeVKQPkKgGjY18bkm62b5Wf4QHKR45kRgXG4D1GXWH2egXXWGJ9ftPgqSV_2VN-1NyAvxxc9dUQZeHaOFDIr_UwxvznpF_oov7fstNjerppFy2fUrH7qaNpPf1QroHVKuKjRhbD0XnJAnlqQVQ08pn4TAOi_wn_Oe46HW4L09-HJ81ivGVkoeVQTTEtajhOxeaEvIwSvE8CHuDPbGz0P_6x0EX3Kag-nYLqTud-eFMETZfa3-V3-FcMI9Xd3pLgcLH1uiKCdifapZBLwfUQvPHjHFdESnzNdnftwwYEdx0cbWYkil5KqytDcVjvmRUz9VSL-Bkow8yhLLTTPCTmdjRutnZMnF5i4EBXrvBQENMx8fh047iwq0Fm8ppCfaW9cSUnoaxSXRA45W3oRSaU-ef1-ArsGXa2hAz_WFgHsZf6jXLXBR5xcI9bC3kzBYVTC3mg6yJFmcd0LqId0sCKDxIUW0qvDX-K74dWUCKk5KoWa_HMW_WymsQ5Z0UP7l2FWOEGRpQhOiyR2AxchcCrZsnSLxqlyRSByjRXbUyupA1gxKOf4iYaRCxhov5j-0H6miWMAfumLoYt5yvoSbHHXLc5PYpUW6xp-WfmXruTyWNtDL955yDrYD-J7S5ZriSeso0fiL77tjd3ov4lmwB0pZJwNGBUKrCk5nHaj9EWW6uNvYoPMIUyk9hbRComrN-RuCi-N1UqnpnKlL3r5TDZJ1Gt13U2Zz09-P6BRgLmcMWbtBQvGT9vXcAQWJwZPXigrajE4N3vksy8qZNjS5NTktrqMryjrPwNYcVRQMhLIjhtAQirzSB5ZX5rR4LNRnSivrLuk-oWEJNhNXUs9CM3NNE70UG-Wq0LWSN-gjW9pE4Us1yT4VX_W26ONy7e1SRNj3IgiyBoVqSrouq4VKINtFfZyHgQLkbmuNUBSzsgDMQOXuvrjDNGH71t4sIc9MpUXrrhTWLRrrQTsTKnMUg9PY-oIbTfI1TLXwLIN9N7wz1g4DqgelA1lkc1v17Gnq4w1wgCDV0rGztqebsCsj22KMf_LnXPt16F5UiFpTwuCDJ_HovkggIFOOSfULZcUBubFLiWZa3lnJ1V3LMewbV1tj4lxCN6CWA-8VHl4LSj7ABvJZYEDDexQQCtsqGpdW0MUxxugyKWtbLeThP6LzBQdajTIcURlj_PRx5_0W7-XF-o83dRns3mVSmERQ2yUWTfbQS11e7N1GPVR1FqxkRJ_wdsYch_Io1lUmYC7KagAqMqqeRVnG_ZVwYR5U1YJgG5SCkbJmviW_rF373w4fWPnsG_6r027pRaUmBZnad8tCPiOPmaN_GFCMCf-ZLtfrrXsgirEjTcfDZlLPgVQx5IRdMgpKsrsglqVJhMpESpMXLpfBm00?></g></svg>